<svg width="20" height="20" viewBox="0 0 20 20" fill="none" xmlns="http://www.w3.org/2000/svg">
<path d="M4.51734 10.943L4.51737 10.943C4.94804 10.7517 5.4521 10.9457 5.6434 11.3762C5.83469 11.8068 5.64071 12.3109 5.21021 12.5023L5.21018 12.5023C4.52141 12.8084 3.93141 13.1766 3.45504 13.5952L3.45503 13.5952C2.88412 14.0969 2.55625 14.8237 2.55625 15.5898V16.8906C2.55625 17.1955 2.80454 17.4438 3.10938 17.4438H16.8906C17.1955 17.4438 17.4438 17.1955 17.4438 16.8906V15.5898C17.4438 14.8237 17.1159 14.0969 16.545 13.5952L16.644 13.4825L16.545 13.5952C15.8579 12.9914 13.8223 11.5562 10 11.5562C7.04821 11.5562 4.64688 9.15491 4.64688 6.20312C4.64688 3.25134 7.04821 0.85 10 0.85C12.9518 0.85 15.3531 3.25134 15.3531 6.20312C15.3531 7.81796 14.6342 9.26765 13.5005 10.2496C15.6161 10.7686 16.9533 11.6826 17.6712 12.3135C18.6111 13.1393 19.15 14.3335 19.15 15.5898V16.8906C19.15 18.1366 18.1366 19.15 16.8906 19.15H3.10938C1.86336 19.15 0.85 18.1366 0.85 16.8906V15.5898C0.85 14.3335 1.38889 13.1393 2.3288 12.3135C2.93825 11.778 3.675 11.3173 4.51734 10.943ZM13.6469 6.20312C13.6469 4.19239 12.0107 2.55625 10 2.55625C7.98926 2.55625 6.35312 4.19239 6.35312 6.20312C6.35312 8.21386 7.98926 9.85 10 9.85C12.0107 9.85 13.6469 8.21386 13.6469 6.20312Z" fill="white" stroke="white" stroke-width="0.3"/>
</svg>
