<svg width="30" height="23" viewBox="0 0 30 23" fill="none" xmlns="http://www.w3.org/2000/svg">
<path d="M25.5 6.13453H22.5V10.7342H18V13.8007H22.5V18.4003H25.5V13.8007H30V10.7342H25.5V6.13453ZM3 6.13453C2.98153 6.94507 3.1241 7.75103 3.41909 8.50364C3.71408 9.25625 4.15535 9.93989 4.71623 10.5132C5.2771 11.0865 5.94592 11.5375 6.68222 11.8391C7.41853 12.1406 8.20702 12.2863 9 12.2674C9.79298 12.2863 10.5815 12.1406 11.3178 11.8391C12.0541 11.5375 12.7229 11.0865 13.2838 10.5132C13.8446 9.93989 14.2859 9.25625 14.5809 8.50364C14.8759 7.75103 15.0185 6.94507 15 6.13453C15.0185 5.32398 14.8759 4.51802 14.5809 3.76541C14.2859 3.0128 13.8446 2.32917 13.2838 1.75587C12.7229 1.18257 12.0541 0.731518 11.3178 0.429995C10.5815 0.128472 9.79298 -0.0172559 9 0.00162611C8.20702 -0.0172559 7.41853 0.128472 6.68222 0.429995C5.94592 0.731518 5.2771 1.18257 4.71623 1.75587C4.15535 2.32917 3.71408 3.0128 3.41909 3.76541C3.1241 4.51802 2.98153 5.32398 3 6.13453ZM12 6.13453C12.0193 6.54244 11.9549 6.94997 11.811 7.33094C11.667 7.71191 11.4467 8.05789 11.1642 8.34667C10.8817 8.63544 10.5432 8.86063 10.1705 9.00775C9.79777 9.15488 9.39907 9.2207 9 9.20098C8.60093 9.2207 8.20223 9.15488 7.82951 9.00775C7.4568 8.86063 7.11832 8.63544 6.8358 8.34667C6.55328 8.05789 6.33298 7.71191 6.18904 7.33094C6.0451 6.94997 5.98071 6.54244 6 6.13453C5.98071 5.72661 6.0451 5.31908 6.18904 4.93811C6.33298 4.55715 6.55328 4.21116 6.8358 3.92239C7.11832 3.63361 7.4568 3.40843 7.82951 3.2613C8.20223 3.11417 8.60093 3.04836 9 3.06808C9.39907 3.04836 9.79777 3.11417 10.1705 3.2613C10.5432 3.40843 10.8817 3.63361 11.1642 3.92239C11.4467 4.21116 11.667 4.55715 11.811 4.93811C11.9549 5.31908 12.0193 5.72661 12 6.13453ZM3 21.4668C3 20.2469 3.47411 19.0769 4.31802 18.2143C5.16193 17.3517 6.30653 16.8671 7.5 16.8671H10.5C11.6935 16.8671 12.8381 17.3517 13.682 18.2143C14.5259 19.0769 15 20.2469 15 21.4668V23H18V21.4668C18 20.46 17.806 19.4632 17.4291 18.5331C17.0522 17.603 16.4997 16.7579 15.8033 16.046C15.1069 15.3341 14.2801 14.7695 13.3701 14.3842C12.4602 13.9989 11.4849 13.8007 10.5 13.8007H7.5C5.51088 13.8007 3.60322 14.6083 2.1967 16.046C0.790176 17.4837 0 19.4336 0 21.4668V23H3V21.4668Z" fill="white"/>
</svg>
