<svg width="16" height="16" viewBox="0 0 16 16" fill="none" xmlns="http://www.w3.org/2000/svg">
<path d="M14.5018 1.49564C12.5077 -0.498547 9.26289 -0.498547 7.26845 1.49564L1.0682 7.69586C-0.356145 9.12036 -0.356051 11.4381 1.06839 12.8625C1.78067 13.5748 2.71598 13.931 3.65167 13.9309C4.58711 13.9308 5.52292 13.5747 6.23507 12.8625L11.9184 7.17902C12.3325 6.76502 12.5606 6.21455 12.5606 5.62905C12.5606 5.04352 12.3327 4.49308 11.9185 4.07895C11.0638 3.2243 9.67304 3.22433 8.81848 4.07911L5.10176 7.79574C4.81642 8.08105 4.81642 8.5437 5.1017 8.82908C5.38701 9.11448 5.84967 9.11439 6.13504 8.82908L9.85179 5.11242C10.1367 4.82752 10.6002 4.82745 10.8851 5.11236C11.0231 5.25036 11.0992 5.43386 11.0992 5.62902C11.0992 5.82417 11.0232 6.00761 10.8851 6.14567L5.20173 11.8292C4.34701 12.6838 2.95639 12.6839 2.10173 11.8292C1.24707 10.9745 1.24701 9.58383 2.10157 8.72911L8.30179 2.52898C9.72635 1.10448 12.0441 1.10448 13.4685 2.52898C14.1586 3.21898 14.5386 4.13645 14.5386 5.1123C14.5386 6.08814 14.1585 7.00561 13.4685 7.69567L7.26835 13.896C6.98304 14.1813 6.98304 14.644 7.26842 14.9293C7.4111 15.072 7.5981 15.1433 7.78507 15.1433C7.97207 15.1433 8.15907 15.072 8.30176 14.9293L14.5018 8.72905C15.4679 7.76302 15.9999 6.47858 16 5.11233C16 3.74611 15.4679 2.46167 14.5018 1.49564Z" fill="#B2BAC9"/>
</svg>
