<svg width="16" height="14" viewBox="0 0 16 14" fill="none" xmlns="http://www.w3.org/2000/svg">
<path d="M7.99998 9.8C9.32546 9.8 10.4 8.72548 10.4 7.4C10.4 6.07452 9.32546 5 7.99998 5C6.67449 5 5.59998 6.07452 5.59998 7.4C5.59998 8.72548 6.67449 9.8 7.99998 9.8Z" fill="white"/>
<path d="M5.75 0L4.3775 1.5H2C1.175 1.5 0.5 2.175 0.5 3V12C0.5 12.825 1.175 13.5 2 13.5H14C14.825 13.5 15.5 12.825 15.5 12V3C15.5 2.175 14.825 1.5 14 1.5H11.6225L10.25 0H5.75ZM8 11.25C5.93 11.25 4.25 9.57 4.25 7.5C4.25 5.43 5.93 3.75 8 3.75C10.07 3.75 11.75 5.43 11.75 7.5C11.75 9.57 10.07 11.25 8 11.25Z" fill="white"/>
</svg>
