<svg width="50" height="50" viewBox="0 0 50 50" fill="none" xmlns="http://www.w3.org/2000/svg">
<path fill-rule="evenodd" clip-rule="evenodd" d="M43.9505 0C36.6992 0.000305546 29.745 2.8813 24.6177 8.00921L23.1835 9.44043C22.2023 10.4217 21.2586 11.4435 20.3587 12.4997H10.3471C9.41333 12.5 8.49523 12.7394 7.68023 13.195C6.86522 13.6507 6.18046 14.3075 5.69119 15.1028L0.347886 23.7714C0.16032 24.0761 0.0449968 24.4196 0.0107572 24.7758C-0.0234823 25.132 0.0242704 25.4912 0.150355 25.8261C0.27644 26.1609 0.47751 26.4624 0.738153 26.7075C0.998795 26.9526 1.31209 27.1348 1.65403 27.2401L11.347 30.2212C11.4626 30.3806 11.5938 30.5337 11.7344 30.6744L19.3244 38.2617C19.4682 38.4055 19.6182 38.5367 19.7775 38.6523L22.7585 48.3459C22.8638 48.6878 23.0459 49.0011 23.291 49.2618C23.5361 49.5225 23.8376 49.7235 24.1724 49.8496C24.5072 49.9757 24.8665 50.0235 25.2226 49.9892C25.5788 49.955 25.9223 49.8397 26.227 49.6521L34.895 44.3178C35.6903 43.8285 36.347 43.1437 36.8027 42.3287C37.2583 41.5136 37.4976 40.5955 37.4979 39.6617V29.64C38.5541 28.74 39.5759 27.7963 40.557 26.8151L41.9882 25.3807C47.1161 20.2544 49.998 13.301 50 6.04987V5.46864C50 4.01826 49.4239 2.62729 48.3984 1.60173C47.3729 0.576158 45.982 0 44.5317 0H43.9505ZM32.8139 33.2024C32.539 33.3899 32.2609 33.5712 31.9828 33.7493L24.6396 38.5023L26.352 44.0741L32.4421 40.3242C32.5558 40.2542 32.6496 40.1563 32.7147 40.0398C32.7798 39.9233 32.814 39.792 32.8139 39.6586V33.2024ZM11.497 25.362L16.2528 18.0184C16.434 17.7371 16.6184 17.4621 16.8028 17.1871H10.3439C10.2105 17.1871 10.0792 17.2213 9.9627 17.2864C9.84619 17.3515 9.74829 17.4453 9.67836 17.559L5.92867 23.6526L11.497 25.362ZM27.9331 11.3216C32.1807 7.07457 37.9409 4.68827 43.9474 4.6874H44.5286C44.7358 4.6874 44.9345 4.76971 45.081 4.91622C45.2275 5.06273 45.3098 5.26144 45.3098 5.46864V6.04987C45.3102 9.02522 44.7245 11.9715 43.5863 14.7205C42.448 17.4695 40.7795 19.9673 38.6759 22.0714L37.2417 23.5026C34.869 25.8766 32.2514 27.9925 29.433 29.815L22.1929 34.5024L15.4966 27.8057L20.1837 20.5652C22.0067 17.746 24.1224 15.1274 26.4957 12.7529L27.9268 11.3216H27.9331ZM37.501 15.6247C37.501 16.4535 37.1718 17.2483 36.5858 17.8343C35.9998 18.4204 35.205 18.7496 34.3763 18.7496C33.5476 18.7496 32.7528 18.4204 32.1668 17.8343C31.5808 17.2483 31.2516 16.4535 31.2516 15.6247C31.2516 14.7959 31.5808 14.0011 32.1668 13.415C32.7528 12.829 33.5476 12.4997 34.3763 12.4997C35.205 12.4997 35.9998 12.829 36.5858 13.415C37.1718 14.0011 37.501 14.7959 37.501 15.6247ZM11.1282 45.4991C11.5887 45.0699 11.9581 44.5524 12.2143 43.9775C12.4705 43.4025 12.6082 42.7818 12.6193 42.1524C12.6304 41.523 12.5146 40.8978 12.2789 40.3142C12.0432 39.7305 11.6923 39.2003 11.2472 38.7552C10.8021 38.3101 10.272 37.9592 9.68834 37.7234C9.10472 37.4877 8.47959 37.3719 7.85025 37.383C7.2209 37.3941 6.60025 37.5319 6.0253 37.7881C5.45035 38.0443 4.93289 38.4137 4.50379 38.8742C2.21023 41.1554 1.23219 46.1615 0.910339 48.2584C0.891309 48.3714 0.89958 48.4873 0.934462 48.5965C0.969344 48.7057 1.02983 48.8049 1.11086 48.8859C1.1919 48.967 1.29114 49.0275 1.4003 49.0624C1.50946 49.0972 1.62539 49.1055 1.7384 49.0865C3.8351 48.7646 8.84093 47.7865 11.1282 45.4991Z" fill="white"/>
</svg>
