<svg width="17" height="20" viewBox="0 0 17 20" fill="none" xmlns="http://www.w3.org/2000/svg">
<path d="M12.6148 15.7806H7.0714C6.63984 15.7806 6.29004 15.4308 6.29004 14.9992C6.29004 14.5677 6.63984 14.2179 7.0714 14.2179H12.6148C13.0463 14.2179 13.3961 14.5677 13.3961 14.9992C13.3961 15.4308 13.0463 15.7806 12.6148 15.7806Z" fill="#0B204C"/>
<path d="M12.6148 12.6552H7.0714C6.63984 12.6552 6.29004 12.3054 6.29004 11.8738C6.29004 11.4423 6.63984 11.0925 7.0714 11.0925H12.6148C13.0463 11.0925 13.3961 11.4423 13.3961 11.8738C13.3961 12.3054 13.0463 12.6552 12.6148 12.6552Z" fill="#0B204C"/>
<path d="M9.45456 9.52972H7.0714C6.63984 9.52972 6.29004 9.17992 6.29004 8.74836C6.29004 8.3168 6.63984 7.96699 7.0714 7.96699H9.45456C9.88613 7.96699 10.2359 8.3168 10.2359 8.74836C10.2359 9.17992 9.88613 9.52972 9.45456 9.52972Z" fill="#0B204C"/>
<path d="M15.7836 9.3735C16.2151 9.3735 16.5649 9.7233 16.5649 10.1549V16.8745C16.5649 18.5979 15.1628 20 13.4395 20H6.25093C4.52851 20 3.12706 18.5995 3.12546 16.8774C1.40211 16.8774 0 15.4754 0 13.752V3.12546C0 1.40211 1.40207 0 3.12546 0H10.7047C12.428 0 13.8301 1.40207 13.8301 3.12546V3.14921C15.3697 3.3421 16.5649 4.65944 16.5649 6.25034C16.5649 6.6819 16.2151 7.0317 15.7835 7.0317C15.352 7.0317 15.0022 6.6819 15.0022 6.25034C15.0022 5.38886 14.3013 4.6878 13.4398 4.68761L6.25128 4.68585H6.25093C5.83354 4.68585 5.44116 4.84835 5.14605 5.14347C4.85081 5.43862 4.68819 5.83112 4.68819 6.24858V16.8745C4.68819 17.7362 5.38925 18.4373 6.25093 18.4373H13.4395C14.3012 18.4373 15.0022 17.7362 15.0022 16.8745V10.1548C15.0022 9.7233 15.352 9.3735 15.7836 9.3735ZM6.25093 3.1232H6.25171L12.2674 3.12468C12.2669 2.26339 11.5661 1.56281 10.7047 1.56281H3.1255C2.26382 1.56281 1.56277 2.26386 1.56277 3.12554V13.752C1.56277 14.6137 2.26382 15.3148 3.1255 15.3148V6.24862C3.1255 5.41366 3.4507 4.62866 4.04116 4.03835C4.63152 3.44812 5.41616 3.1232 6.25093 3.1232Z" fill="#0B204C"/>
</svg>
