<svg width="15" height="20" viewBox="0 0 15 20" fill="none" xmlns="http://www.w3.org/2000/svg">
<path d="M14.5 17.7033V3.0295C14.5 1.9105 13.594 1 12.4818 1H3.01825C1.906 1 1 1.9105 1 3.0295V17.7025C1 18.19 1.2685 18.6318 1.7005 18.8553C2.13025 19.0765 2.64175 19.0405 3.03625 18.76L7.65625 15.4728C7.71175 15.433 7.7875 15.433 7.84375 15.4728L12.4637 18.76C12.6865 18.9183 12.9475 18.9985 13.2092 18.9985C13.411 18.9985 13.6128 18.9513 13.7995 18.8553C14.2315 18.6325 14.5 18.1908 14.5 17.7033ZM13.375 17.7033C13.375 17.7948 13.3173 17.839 13.2835 17.8563C13.2438 17.8758 13.183 17.8915 13.1155 17.8435L8.4955 14.5563C8.04925 14.239 7.45 14.239 7.0045 14.5563L2.3845 17.8435C2.31775 17.8908 2.25625 17.8758 2.2165 17.8563C2.18275 17.8383 2.125 17.7948 2.125 17.7033V3.0295C2.125 2.53075 2.52625 2.125 3.01825 2.125H12.481C12.9738 2.125 13.3743 2.53075 13.3743 3.0295V17.7033H13.375Z" fill="white" stroke="white" stroke-width="0.5"/>
<path d="M7.9003 5.539L7.74955 5.69874L7.5988 5.539C6.63655 4.52275 4.9438 4.52275 3.98305 5.539C3.00955 6.568 3.00955 8.24274 3.98305 9.2725L7.3408 12.8245C7.4473 12.9362 7.59505 13 7.74955 13C7.90405 13 8.0518 12.9362 8.1583 12.8245L11.5161 9.2725C12.4896 8.24349 12.4896 6.56875 11.5161 5.539C10.5546 4.522 8.8618 4.522 7.9003 5.539ZM10.6986 8.4985L7.74955 11.6185L4.80055 8.4985C4.23055 7.8955 4.23055 6.91525 4.80055 6.31225C5.0668 6.03025 5.41855 5.87499 5.7913 5.87499C6.1633 5.87499 6.51505 6.03025 6.7813 6.31225L7.3408 6.904C7.55305 7.12825 7.94605 7.12825 8.1583 6.904L8.7178 6.31225C9.25105 5.74825 10.1653 5.74825 10.6986 6.31225C11.2686 6.91525 11.2686 7.8955 10.6986 8.4985Z" fill="white" stroke="white" stroke-width="0.5"/>
</svg>
