<svg width="16" height="18" viewBox="0 0 16 18" fill="none" xmlns="http://www.w3.org/2000/svg">
<path d="M2.10938 15.1875H13.043C14.2061 15.1875 15.1523 14.2413 15.1523 13.0782V2.10941C15.1523 0.946296 14.2061 3.05176e-05 13.043 3.05176e-05H2.10938C0.946266 3.05176e-05 0 0.946296 0 2.10941V15.8907C0 17.0538 0.946266 18 2.10938 18H12.3398H13.043C14.2061 18 15.1523 17.0538 15.1523 15.8907V15.8889C14.5644 16.3313 13.8338 16.5938 13.043 16.5938H12.3398H2.10938C1.72167 16.5938 1.40625 16.2784 1.40625 15.8907C1.40625 15.503 1.72167 15.1875 2.10938 15.1875ZM1.40625 2.10941C1.40625 1.7217 1.72167 1.40628 2.10938 1.40628H13.043C13.4307 1.40628 13.7461 1.7217 13.7461 2.10941V13.0782C13.7461 13.4659 13.4307 13.7813 13.043 13.7813H2.10938C1.86296 13.7813 1.62626 13.8237 1.40625 13.9018V2.10941ZM6.39844 5.92667H4.99219C4.99219 5.20534 5.30135 4.5149 5.84044 4.03231C6.38659 3.54336 7.12128 3.30964 7.8563 3.39127C9.03378 3.52195 9.98195 4.46765 10.1108 5.64001C10.2284 6.70925 9.60131 7.4765 9.11943 7.9606C8.99539 8.08519 8.88093 8.19436 8.77992 8.29072C8.32046 8.72891 8.26193 8.80259 8.26193 9.10536V9.14066H6.85568V9.10532C6.85568 8.18258 7.29766 7.76109 7.80943 7.27302C7.90886 7.1782 8.01169 7.08015 8.12278 6.96853C8.57689 6.5123 8.75341 6.16095 8.71305 5.79364C8.65547 5.27016 8.22997 4.84762 7.70122 4.78894C7.35859 4.75105 7.03065 4.85426 6.77841 5.08011C6.53337 5.29941 6.39844 5.60007 6.39844 5.92667ZM6.85547 10.1953H8.26172V11.6016H6.85547V10.1953Z" fill="white"/>
</svg>
