<svg width="18" height="18" viewBox="0 0 18 18" fill="none" xmlns="http://www.w3.org/2000/svg">
<path fill-rule="evenodd" clip-rule="evenodd" d="M14 7C11.4 7 11 6.25 11 4C11 1.75 11.4 1 14 1C16.6 1 17 1.75 17 4C17 6.25 16.6 7 14 7Z" stroke="white" stroke-width="2" stroke-linecap="round" stroke-linejoin="round"/>
<path fill-rule="evenodd" clip-rule="evenodd" d="M14 17C11.4 17 11 16.25 11 14C11 11.75 11.4 11 14 11C16.6 11 17 11.75 17 14C17 16.25 16.6 17 14 17Z" stroke="white" stroke-width="2" stroke-linecap="round" stroke-linejoin="round"/>
<path fill-rule="evenodd" clip-rule="evenodd" d="M4 7C1.4 7 1 6.25 1 4C1 1.75 1.4 1 4 1C6.6 1 7 1.75 7 4C7 6.25 6.6 7 4 7Z" stroke="white" stroke-width="2" stroke-linecap="round" stroke-linejoin="round"/>
<path fill-rule="evenodd" clip-rule="evenodd" d="M4 17C1.4 17 1 16.25 1 14C1 11.75 1.4 11 4 11C6.6 11 7 11.75 7 14C7 16.25 6.6 17 4 17Z" stroke="white" stroke-width="2" stroke-linecap="round" stroke-linejoin="round"/>
</svg>
