<svg width="13" height="15" viewBox="0 0 13 15" fill="none" xmlns="http://www.w3.org/2000/svg">
<path d="M0.428756 0.27844C0.142839 0.463861 -6.25787e-07 0.683656 -6.14686e-07 0.937622L-4.09825e-08 14.0624C-2.98768e-08 14.3165 0.14284 14.5361 0.428756 14.7217C0.714989 14.9073 1.05339 15 1.4446 15C1.83573 15 2.17414 14.9073 2.46013 14.7217L12.5709 8.15929C12.8568 7.97351 13 7.75386 13 7.5C13 7.24614 12.8568 7.02629 12.5709 6.84087L2.46005 0.278439C2.17414 0.0930699 1.83573 8.73432e-07 1.44452 8.90532e-07C1.05339 9.07629e-07 0.714989 0.09307 0.428756 0.27844Z" fill="#F0F4FD"/>
</svg>
