<svg width="12" height="12" viewBox="0 0 12 12" fill="none" xmlns="http://www.w3.org/2000/svg">
<path d="M6 2.625C4.86094 2.625 3.9375 3.54844 3.9375 4.6875C3.9375 5.82656 4.86094 6.75 6 6.75C7.13906 6.75 8.0625 5.82656 8.0625 4.6875C8.0625 3.54844 7.13906 2.625 6 2.625ZM6 5.625C5.48297 5.625 5.0625 5.2043 5.0625 4.6875C5.0625 4.16953 5.48203 3.75 6 3.75C6.51797 3.75 6.9375 4.17047 6.9375 4.6875C6.9375 5.20547 6.51797 5.625 6 5.625ZM6 0C2.68594 0 0 2.68594 0 6C0 9.31406 2.68594 12 6 12C9.31406 12 12 9.31406 12 6C12 2.68594 9.31406 0 6 0ZM6 10.875C4.90477 10.875 3.89625 10.5075 3.08203 9.89555C3.4875 9.11719 4.275 8.625 5.16094 8.625H6.84117C7.72594 8.625 8.5125 9.11742 8.91961 9.89555C8.10469 10.507 7.09453 10.875 6 10.875ZM9.75469 9.10547C9.12188 8.11641 8.04375 7.5 6.83906 7.5H5.16094C3.95719 7.5 2.8793 8.11523 2.24531 9.105C1.54594 8.26172 1.125 7.17891 1.125 6C1.125 3.31172 3.31195 1.125 6 1.125C8.68805 1.125 10.875 3.31195 10.875 6C10.875 7.17891 10.4531 8.26172 9.75469 9.10547Z" fill="#3C4D70"/>
</svg>
