<svg width="17" height="15" viewBox="0 0 17 15" fill="none" xmlns="http://www.w3.org/2000/svg">
<path d="M5.36202 8.47422C7.37955 8.47422 8.90154 6.91765 8.90154 4.8543C8.90154 2.79095 7.37955 1.23439 5.36202 1.23439C3.34449 1.23439 1.8225 2.79095 1.8225 4.8543C1.8225 6.91765 3.34449 8.47422 5.36202 8.47422ZM5.36202 3.04435C6.40441 3.04435 7.13178 3.78824 7.13178 4.8543C7.13178 5.92037 6.40441 6.66426 5.36202 6.66426C4.31963 6.66426 3.59226 5.92037 3.59226 4.8543C3.59226 3.78824 4.31963 3.04435 5.36202 3.04435ZM6.2469 9.3792H4.47714C2.03752 9.3792 0.0527344 11.4091 0.0527344 13.9041V14.8091H1.8225V13.9041C1.8225 12.4073 3.01355 11.1892 4.47714 11.1892H6.2469C7.71049 11.1892 8.90154 12.4073 8.90154 13.9041V14.8091H10.6713V13.9041C10.6713 11.4091 8.68652 9.3792 6.2469 9.3792ZM14.5329 0L13.2817 1.27964C14.4506 2.47693 15.0957 4.06788 15.0957 5.75928C15.0957 7.45069 14.4506 9.04164 13.2817 10.2389L14.5329 11.5186C16.0372 9.9792 16.8655 7.93394 16.8655 5.75928C16.8655 3.58462 16.0372 1.53937 14.5329 0Z" fill="white"/>
<path d="M12.0305 2.55908L10.7793 3.84053C11.281 4.35184 11.5571 5.03329 11.5571 5.75908C11.5571 6.48488 11.281 7.16633 10.7793 7.67764L12.0305 8.95909C12.8658 8.10479 13.3269 6.96904 13.3269 5.75908C13.3269 4.54913 12.8658 3.41338 12.0305 2.55908Z" fill="white"/>
</svg>
