<svg width="27" height="24" viewBox="0 0 27 24" fill="none" xmlns="http://www.w3.org/2000/svg">
<path d="M8.5 13.2657C11.73 13.2657 14.1667 10.829 14.1667 7.599C14.1667 4.369 11.73 1.93233 8.5 1.93233C5.27 1.93233 2.83333 4.369 2.83333 7.599C2.83333 10.829 5.27 13.2657 8.5 13.2657ZM8.5 4.76567C10.1688 4.76567 11.3333 5.93017 11.3333 7.599C11.3333 9.26783 10.1688 10.4323 8.5 10.4323C6.83117 10.4323 5.66667 9.26783 5.66667 7.599C5.66667 5.93017 6.83117 4.76567 8.5 4.76567ZM9.91667 14.6823H7.08333C3.17758 14.6823 0 17.8599 0 21.7657V23.1823H2.83333V21.7657C2.83333 19.4225 4.74017 17.5157 7.08333 17.5157H9.91667C12.2598 17.5157 14.1667 19.4225 14.1667 21.7657V23.1823H17V21.7657C17 17.8599 13.8224 14.6823 9.91667 14.6823ZM23.1823 0L21.1792 2.00317C23.0506 3.87742 24.0833 6.36792 24.0833 9.01567C24.0833 11.6634 23.0506 14.1539 21.1792 16.0282L23.1823 18.0313C25.5907 15.6216 26.9167 12.4199 26.9167 9.01567C26.9167 5.61142 25.5907 2.40975 23.1823 0Z" fill="white"/>
<path d="M19.175 4.00635L17.1719 6.01235C17.9751 6.81276 18.4171 7.87951 18.4171 9.01568C18.4171 10.1518 17.9751 11.2186 17.1719 12.019L19.175 14.025C20.5124 12.6877 21.2505 10.9098 21.2505 9.01568C21.2505 7.1216 20.5124 5.34368 19.175 4.00635Z" fill="white"/>
</svg>
