<svg width="50" height="50" viewBox="0 0 50 50" fill="none" xmlns="http://www.w3.org/2000/svg">
<path d="M7 9.44995C7.79113 9.44995 8.56448 9.68454 9.22228 10.1241C9.88008 10.5636 10.3928 11.1884 10.6955 11.9193C10.9983 12.6502 11.0775 13.4544 10.9231 14.2304C10.7688 15.0063 10.3878 15.719 9.82843 16.2784C9.26902 16.8378 8.55629 17.2188 7.78036 17.3731C7.00444 17.5275 6.20017 17.4483 5.46927 17.1455C4.73836 16.8428 4.11365 16.3301 3.67412 15.6723C3.2346 15.0145 3 14.2411 3 13.45C3 12.3891 3.42143 11.3717 4.17157 10.6216C4.92172 9.87137 5.93913 9.44995 7 9.44995ZM15 13.67C15 14.4656 15.3161 15.2287 15.8787 15.7913C16.4413 16.3539 17.2044 16.67 18 16.67H45C45.7956 16.67 46.5587 16.3539 47.1213 15.7913C47.6839 15.2287 48 14.4656 48 13.67C48 12.8743 47.6839 12.1113 47.1213 11.5487C46.5587 10.9861 45.7956 10.67 45 10.67H18C17.2044 10.67 16.4413 10.9861 15.8787 11.5487C15.3161 12.1113 15 12.8743 15 13.67ZM3 25.45C3 26.2411 3.2346 27.0145 3.67412 27.6723C4.11365 28.3301 4.73836 28.8428 5.46927 29.1455C6.20017 29.4482 7.00444 29.5275 7.78036 29.3731C8.55629 29.2188 9.26902 28.8378 9.82843 28.2784C10.3878 27.719 10.7688 27.0063 10.9231 26.2304C11.0775 25.4543 10.9983 24.6502 10.6955 23.9193C10.3928 23.1884 9.88008 22.5636 9.22228 22.1241C8.56448 21.6846 7.79113 21.45 7 21.45C5.93913 21.45 4.92172 21.8714 4.17157 22.6216C3.42143 23.3717 3 24.3891 3 25.45ZM15 25.67C15 26.4656 15.3161 27.2287 15.8787 27.7913C16.4413 28.3539 17.2044 28.67 18 28.67H45C45.7956 28.67 46.5587 28.3539 47.1213 27.7913C47.6839 27.2287 48 26.4656 48 25.67C48 24.8743 47.6839 24.1113 47.1213 23.5487C46.5587 22.9861 45.7956 22.67 45 22.67H18C17.2044 22.67 16.4413 22.9861 15.8787 23.5487C15.3161 24.1113 15 24.8743 15 25.67ZM3 37.45C3 38.2411 3.2346 39.0144 3.67412 39.6722C4.11365 40.33 4.73836 40.8428 5.46927 41.1455C6.20017 41.4482 7.00444 41.5275 7.78036 41.3731C8.55629 41.2188 9.26902 40.8378 9.82843 40.2784C10.3878 39.719 10.7688 39.0063 10.9231 38.2304C11.0775 37.4543 10.9983 36.6502 10.6955 35.9193C10.3928 35.1884 9.88008 34.5636 9.22228 34.1241C8.56448 33.6845 7.79113 33.45 7 33.45C5.93913 33.45 4.92172 33.8714 4.17157 34.6216C3.42143 35.3717 3 36.3891 3 37.45ZM15 37.6699C15 38.4655 15.3161 39.2287 15.8787 39.7913C16.4413 40.3539 17.2044 40.6699 18 40.6699H45C45.7956 40.6699 46.5587 40.3539 47.1213 39.7913C47.6839 39.2287 48 38.4655 48 37.6699C48 36.8742 47.6839 36.1112 47.1213 35.5486C46.5587 34.986 45.7956 34.6699 45 34.6699H18C17.2044 34.6699 16.4413 34.986 15.8787 35.5486C15.3161 36.1112 15 36.8742 15 37.6699Z" fill="#FF727F"/>
</svg>
