<?xml version="1.0" encoding="utf-8"?>
<!-- Generator: Adobe Illustrator 24.0.1, SVG Export Plug-In . SVG Version: 6.00 Build 0)  -->
<svg version="1.1" id="Layer_1" xmlns="http://www.w3.org/2000/svg" xmlns:xlink="http://www.w3.org/1999/xlink" x="0px" y="0px"
	 viewBox="0 0 512 512" style="enable-background:new 0 0 512 512;" xml:space="preserve">
<style type="text/css">
	.st0{fill:#B2BAC9;}
</style>
<path class="st0" d="M78.8,494.9l-1.2-0.9c-7.4-5.5-8.9-15.9-3.4-23.3L409.9,20.5c5.5-7.4,15.9-8.9,23.3-3.4l1.2,0.9
	c7.4,5.5,8.9,15.9,3.4,23.3L102.1,491.5C96.6,498.8,86.2,500.4,78.8,494.9z"/>
<path class="st0" d="M256,18.2c-76.5,0-138.7,62.2-138.7,138.7l0,237.8c0,54.6,44.4,99.1,99.1,99.1c27.3,0,52.1-11.1,70-29
	c17.9-17.9,29-42.7,29-70l0-217.9c0-15.9-6.2-30.8-17.4-42c-11.2-11.2-26.2-17.4-42-17.4c-32.8,0-59.4,26.7-59.4,59.4l0,142.5
	c0,10.9,8.9,19.8,19.8,19.8c10.9,0,19.8-8.9,19.8-19.8l0-142.5c0-10.9,8.9-19.8,19.8-19.8c5.3,0,10.3,2.1,14,5.8
	c3.7,3.7,5.8,8.7,5.8,14l0,217.9c0,32.8-26.7,59.4-59.4,59.4s-59.4-26.7-59.4-59.4l0-237.8c0-54.6,44.4-99.1,99.1-99.1
	c26.5,0,51.3,10.3,70.1,29c18.7,18.7,29,43.6,29,70.1l0,237.8c0,10.9,8.9,19.8,19.8,19.8c5.5,0,10.4-2.2,14-5.8
	c3.6-3.6,5.8-8.5,5.8-14l0-237.8c0-37-14.4-71.9-40.6-98.1C327.9,32.7,293,18.2,256,18.2z"/>
</svg>
