<svg width="134" height="134" viewBox="0 0 134 134" fill="none" xmlns="http://www.w3.org/2000/svg">
<path fill-rule="evenodd" clip-rule="evenodd" d="M51.5 59.25C51.5 63.5357 48.028 67 43.75 67C39.472 67 36 63.5357 36 59.25C36 54.9643 39.472 51.5 43.75 51.5C48.028 51.5 51.5 54.9643 51.5 59.25Z" fill="#D2D2D2"/>
<path fill-rule="evenodd" clip-rule="evenodd" d="M74.75 59.25C74.75 63.5357 71.278 67 67 67C62.722 67 59.25 63.5357 59.25 59.25C59.25 54.9643 62.722 51.5 67 51.5C71.278 51.5 74.75 54.9643 74.75 59.25Z" fill="#D2D2D2"/>
<path fill-rule="evenodd" clip-rule="evenodd" d="M98 59.25C98 63.5357 94.528 67 90.25 67C85.972 67 82.5 63.5357 82.5 59.25C82.5 54.9643 85.972 51.5 90.25 51.5C94.528 51.5 98 54.9643 98 59.25Z" fill="#D2D2D2"/>
<path fill-rule="evenodd" clip-rule="evenodd" d="M36 113.5H67C120.707 113.5 129 99.9375 129 59.25C129 18.5625 120.707 5 67 5C13.2925 5 5 18.5625 5 59.25V129L36 113.5Z" stroke="#D2D2D2" stroke-width="9" stroke-linecap="round" stroke-linejoin="round"/>
</svg>
