<svg width="25" height="15" viewBox="0 0 25 15" fill="none" xmlns="http://www.w3.org/2000/svg">
<path d="M12.5 14.9512C17.2765 14.9512 21.6081 12.3379 24.8044 8.09324C25.0652 7.74548 25.0652 7.25965 24.8044 6.9119C21.6081 2.66213 17.2765 0.0488501 12.5 0.0488501C7.72348 0.0488501 3.39189 2.66213 0.195612 6.90678C-0.0652027 7.25454 -0.0652027 7.74037 0.195612 8.08813C3.39189 12.3379 7.72348 14.9512 12.5 14.9512ZM12.1574 2.253C15.3281 2.05356 17.9465 4.66683 17.747 7.84265C17.5834 10.461 15.461 12.5834 12.8426 12.747C9.67193 12.9465 7.05354 10.3332 7.25299 7.15737C7.42175 4.54409 9.54408 2.42177 12.1574 2.253ZM12.3159 4.67706C14.024 4.56966 15.4355 5.97603 15.323 7.68412C15.236 9.09559 14.0905 10.236 12.679 10.3281C10.9709 10.4355 9.55943 9.02911 9.67193 7.32102C9.76399 5.90443 10.9095 4.764 12.3159 4.67706Z" fill="#0B204C"/>
</svg>
