<svg width="17" height="11" viewBox="0 0 17 11" fill="none" xmlns="http://www.w3.org/2000/svg">
<path d="M8.5 0.433228C5.25197 0.433228 2.30648 2.21026 0.133016 5.09662C-0.0443388 5.33309 -0.0443388 5.66346 0.133016 5.89993C2.30648 8.78978 5.25197 10.5668 8.5 10.5668C11.748 10.5668 14.6935 8.78978 16.867 5.90341C17.0443 5.66694 17.0443 5.33657 16.867 5.1001C14.6935 2.21026 11.748 0.433228 8.5 0.433228ZM8.733 9.06798C6.57691 9.20361 4.79641 7.42658 4.93203 5.26702C5.04332 3.48652 6.4865 2.04333 8.267 1.93205C10.4231 1.79643 12.2036 3.57345 12.068 5.73301C11.9532 7.51004 10.51 8.95322 8.733 9.06798ZM8.62519 7.41962C7.46369 7.49265 6.50389 6.53633 6.58039 5.37482C6.63951 4.41502 7.41848 3.63953 8.37829 3.57693C9.53979 3.5039 10.4996 4.46023 10.4231 5.62173C10.3605 6.58501 9.58152 7.3605 8.62519 7.41962Z" fill="#0B204C"/>
</svg>
