<svg width="16" height="16" viewBox="0 0 16 16" fill="none" xmlns="http://www.w3.org/2000/svg">
<path fill-rule="evenodd" clip-rule="evenodd" d="M14.0653 0C11.7447 9.77766e-05 9.5192 0.922034 7.87833 2.563L7.41933 3.021C7.10533 3.335 6.80333 3.662 6.51533 4H3.31133C3.01252 4.00009 2.7187 4.07669 2.45788 4.2225C2.19705 4.36832 1.97791 4.57849 1.82133 4.833L0.111333 7.607C0.0513065 7.7045 0.0144002 7.81445 0.0034426 7.92842C-0.00751496 8.04239 0.00776719 8.15736 0.0481177 8.26451C0.0884682 8.37166 0.152816 8.46815 0.236228 8.54658C0.319641 8.62502 0.419904 8.68331 0.529333 8.717L3.63133 9.671C3.66833 9.722 3.71033 9.771 3.75533 9.816L6.18433 12.244C6.23033 12.29 6.27833 12.332 6.32933 12.369L7.28333 15.471C7.31702 15.5804 7.37531 15.6807 7.45375 15.7641C7.53218 15.8475 7.62867 15.9119 7.73582 15.9522C7.84297 15.9926 7.95794 16.0078 8.07191 15.9969C8.18588 15.9859 8.29583 15.949 8.39333 15.889L11.1673 14.182C11.4218 14.0254 11.632 13.8063 11.7778 13.5455C11.9236 13.2846 12.0002 12.9908 12.0003 12.692V9.485C12.3383 9.197 12.6653 8.895 12.9793 8.581L13.4373 8.122C15.0784 6.48154 16.0007 4.2564 16.0013 1.936V1.75C16.0013 1.28587 15.817 0.840752 15.4888 0.512563C15.1606 0.184374 14.7155 0 14.2513 0H14.0653ZM10.5013 10.625C10.4133 10.685 10.3243 10.743 10.2353 10.8L7.88533 12.321L8.43333 14.104L10.3823 12.904C10.4187 12.8816 10.4487 12.8503 10.4696 12.813C10.4904 12.7757 10.5013 12.7337 10.5013 12.691V10.625ZM3.67933 8.116L5.20133 5.766C5.25933 5.676 5.31833 5.588 5.37733 5.5H3.31033C3.26762 5.49999 3.22562 5.51092 3.18833 5.53175C3.15104 5.55258 3.11971 5.58262 3.09733 5.619L1.89733 7.569L3.67933 8.116ZM8.93933 3.623C10.2987 2.26391 12.1421 1.50028 14.0643 1.5H14.2503C14.3166 1.5 14.3802 1.52634 14.4271 1.57322C14.474 1.62011 14.5003 1.6837 14.5003 1.75V1.936C14.5005 2.88813 14.313 3.83096 13.9488 4.71066C13.5845 5.59035 13.0505 6.38968 12.3773 7.063L11.9183 7.521C11.159 8.28068 10.3213 8.95779 9.41933 9.541L7.10233 11.041L4.95933 8.898L6.45933 6.581C7.04272 5.67884 7.71982 4.84085 8.47933 4.081L8.93733 3.623H8.93933ZM12.0013 5C12.0013 5.26522 11.896 5.51957 11.7084 5.70711C11.5209 5.89464 11.2666 6 11.0013 6C10.7361 6 10.4818 5.89464 10.2942 5.70711C10.1067 5.51957 10.0013 5.26522 10.0013 5C10.0013 4.73478 10.1067 4.48043 10.2942 4.29289C10.4818 4.10536 10.7361 4 11.0013 4C11.2666 4 11.5209 4.10536 11.7084 4.29289C11.896 4.48043 12.0013 4.73478 12.0013 5ZM3.56133 14.56C3.70871 14.4227 3.82691 14.2571 3.9089 14.0731C3.99088 13.8891 4.03496 13.6905 4.03852 13.489C4.04207 13.2876 4.00502 13.0876 3.92958 12.9008C3.85414 12.714 3.74185 12.5444 3.59941 12.4019C3.45697 12.2595 3.2873 12.1472 3.10053 12.0718C2.91375 11.9963 2.71369 11.9593 2.51229 11.9628C2.31088 11.9664 2.11226 12.0105 1.92826 12.0924C1.74426 12.1744 1.57866 12.2926 1.44133 12.44C0.707333 13.17 0.394333 14.772 0.291333 15.443C0.285243 15.4792 0.28789 15.5163 0.299053 15.5512C0.310216 15.5861 0.329572 15.6179 0.355505 15.6438C0.381438 15.6698 0.413198 15.6891 0.448133 15.7003C0.483068 15.7114 0.520167 15.7141 0.556333 15.708C1.22733 15.605 2.82933 15.292 3.56133 14.56Z" fill="white"/>
</svg>
