<svg width="20" height="20" viewBox="0 0 20 20" fill="none" xmlns="http://www.w3.org/2000/svg">
<path d="M2.875 16.9H8.125C8.41485 16.9 8.65 16.6648 8.65 16.375C8.65 16.0852 8.41485 15.85 8.125 15.85H2.875C2.33759 15.85 1.9 15.4124 1.9 14.875V5.125C1.9 4.58759 2.33759 4.15 2.875 4.15H4.375C4.66484 4.15 4.9 3.91484 4.9 3.625C4.9 3.33516 4.66484 3.1 4.375 3.1H2.875C1.7587 3.1 0.85 4.00787 0.85 5.125V14.875C0.85 15.9921 1.7587 16.9 2.875 16.9Z" fill="#B2BAC9" stroke="#B2BAC9" stroke-width="0.3"/>
<path d="M12.85 7.375C12.85 7.66484 13.0852 7.9 13.375 7.9C13.6648 7.9 13.9 7.66484 13.9 7.375V5.125C13.9 4.00787 12.9913 3.1 11.875 3.1H10.375C10.0852 3.1 9.85 3.33516 9.85 3.625C9.85 3.91484 10.0852 4.15 10.375 4.15H11.875C12.4124 4.15 12.85 4.58759 12.85 5.125V7.375Z" fill="#B2BAC9" stroke="#B2BAC9" stroke-width="0.3"/>
<path d="M5.125 5.65H9.625C10.3281 5.65 10.9 5.07809 10.9 4.375V2.875C10.9 2.58516 10.6648 2.35 10.375 2.35H9.33109C9.0989 1.48705 8.31101 0.85 7.375 0.85C6.43899 0.85 5.6511 1.48705 5.41891 2.35H4.375C4.08516 2.35 3.85 2.58516 3.85 2.875V4.375C3.85 5.07809 4.42191 5.65 5.125 5.65ZM4.9 4.375V3.4H5.875C6.16484 3.4 6.4 3.16484 6.4 2.875C6.4 2.33759 6.83759 1.9 7.375 1.9C7.91241 1.9 8.35 2.33759 8.35 2.875C8.35 3.16484 8.58516 3.4 8.875 3.4H9.85V4.375C9.85 4.4986 9.74896 4.6 9.625 4.6H5.125C5.00104 4.6 4.9 4.4986 4.9 4.375Z" fill="#B2BAC9" stroke="#B2BAC9" stroke-width="0.3"/>
<path d="M9.09976 14.125C9.09976 16.8959 11.3539 19.15 14.1248 19.15C16.8956 19.15 19.1497 16.8959 19.1497 14.125C19.1497 11.3542 16.8956 9.1 14.1248 9.1C11.3539 9.1 9.09976 11.3542 9.09976 14.125ZM10.1498 14.125C10.1498 11.9338 11.9329 10.15 14.1248 10.15C16.3166 10.15 18.0997 11.9338 18.0997 14.125C18.0997 16.3162 16.3166 18.1 14.1248 18.1C11.9329 18.1 10.1498 16.3162 10.1498 14.125Z" fill="#B2BAC9" stroke="#B2BAC9" stroke-width="0.3"/>
<path d="M13.5998 16.375C13.5998 16.6648 13.8349 16.9 14.1248 16.9C14.4146 16.9 14.6498 16.6648 14.6498 16.375V11.875C14.6498 11.5852 14.4146 11.35 14.1248 11.35C13.8349 11.35 13.5998 11.5852 13.5998 11.875V16.375Z" fill="#B2BAC9" stroke="#B2BAC9" stroke-width="0.3"/>
<path d="M11.8748 14.65H16.3748C16.6646 14.65 16.8998 14.4148 16.8998 14.125C16.8998 13.8352 16.6646 13.6 16.3748 13.6H11.8748C11.5849 13.6 11.3498 13.8352 11.3498 14.125C11.3498 14.4148 11.5849 14.65 11.8748 14.65Z" fill="#B2BAC9" stroke="#B2BAC9" stroke-width="0.3"/>
<path d="M3.625 7.9H11.125C11.4148 7.9 11.65 7.66484 11.65 7.375C11.65 7.08516 11.4148 6.85 11.125 6.85H3.625C3.33516 6.85 3.1 7.08516 3.1 7.375C3.1 7.66484 3.33516 7.9 3.625 7.9Z" fill="#B2BAC9" stroke="#B2BAC9" stroke-width="0.3"/>
<path d="M3.625 10.15H8.875C9.16484 10.15 9.4 9.91484 9.4 9.625C9.4 9.33516 9.16484 9.1 8.875 9.1H3.625C3.33516 9.1 3.1 9.33516 3.1 9.625C3.1 9.91484 3.33516 10.15 3.625 10.15Z" fill="#B2BAC9" stroke="#B2BAC9" stroke-width="0.3"/>
<path d="M3.625 12.4H7.375C7.66484 12.4 7.9 12.1648 7.9 11.875C7.9 11.5852 7.66484 11.35 7.375 11.35H3.625C3.33516 11.35 3.1 11.5852 3.1 11.875C3.1 12.1648 3.33516 12.4 3.625 12.4Z" fill="#B2BAC9" stroke="#B2BAC9" stroke-width="0.3"/>
</svg>
