<svg width="18" height="18" viewBox="0 0 18 18" fill="none" xmlns="http://www.w3.org/2000/svg">
<path d="M9 0C4.02823 0 0 4.02823 0 9C0 13.9718 4.02823 18 9 18C13.9718 18 18 13.9718 18 9C18 4.02823 13.9718 0 9 0ZM9 16.2581C4.98992 16.2581 1.74194 13.0101 1.74194 9C1.74194 4.98992 4.98992 1.74194 9 1.74194C13.0101 1.74194 16.2581 4.98992 16.2581 9C16.2581 13.0101 13.0101 16.2581 9 16.2581ZM12.4839 6.09677V11.9032C12.4839 12.2226 12.2226 12.4839 11.9032 12.4839H10.1613C9.84194 12.4839 9.58064 12.2226 9.58064 11.9032V6.09677C9.58064 5.77742 9.84194 5.51613 10.1613 5.51613H11.9032C12.2226 5.51613 12.4839 5.77742 12.4839 6.09677ZM8.41935 6.09677V11.9032C8.41935 12.2226 8.15806 12.4839 7.83871 12.4839H6.09677C5.77742 12.4839 5.51613 12.2226 5.51613 11.9032V6.09677C5.51613 5.77742 5.77742 5.51613 6.09677 5.51613H7.83871C8.15806 5.51613 8.41935 5.77742 8.41935 6.09677Z" fill="white"/>
</svg>
