<svg width="28" height="24" viewBox="0 0 28 24" fill="none" xmlns="http://www.w3.org/2000/svg">
<path d="M16 0C19.3333 0 22.1667 1.16667 24.5 3.5C26.8333 5.83333 28 8.66667 28 12C28 15.3333 26.8333 18.1667 24.5 20.5C22.1667 22.8333 19.3333 24 16 24C12.7083 24 9.875 22.8333 7.5 20.5L9.4375 18.5625C11.2292 20.3958 13.4167 21.3125 16 21.3125C18.5833 21.3125 20.7812 20.4062 22.5938 18.5937C24.4062 16.7812 25.3125 14.5833 25.3125 12C25.3125 9.41667 24.4062 7.21875 22.5938 5.40625C20.7812 3.59375 18.5833 2.6875 16 2.6875C13.4167 2.6875 11.2188 3.59375 9.40625 5.40625C7.59375 7.21875 6.6875 9.41667 6.6875 12H10.6875L5.25 17.375L5.1875 17.1875L0 12H4C4 8.66667 5.16667 5.83333 7.5 3.5C9.83333 1.16667 12.6667 0 16 0ZM14.6875 6.6875H16.6875V12.3125L21.3125 15.125L20.375 16.75L14.6875 13.3125V6.6875Z" fill="#423CC7"/>
</svg>
