<svg width="24" height="24" viewBox="0 0 24 24" fill="none" xmlns="http://www.w3.org/2000/svg">
<path fill-rule="evenodd" clip-rule="evenodd" d="M12 20C5.067 20 4 18 4 12C4 6 5.067 4 12 4C18.933 4 20 6 20 12C20 18 18.933 20 12 20Z" stroke="#919BB3" stroke-width="2" stroke-linecap="round" stroke-linejoin="round"/>
<path d="M8 15C9.622 11.479 10.5 10.904 11 11C11.946 11.181 11.928 13.841 13 14C14.032 14.153 14.865 11.808 16 12C16.485 12.082 16.807 12.592 17 13" stroke="#919BB3" stroke-width="2" stroke-linecap="round" stroke-linejoin="round"/>
<path d="M15.5 9C15.5 9.27653 15.2762 9.5 15 9.5C14.7238 9.5 14.5 9.27653 14.5 9C14.5 8.72347 14.7238 8.5 15 8.5C15.2762 8.5 15.5 8.72347 15.5 9Z" fill="#333333" stroke="#919BB3"/>
</svg>
