<svg width="11" height="12" viewBox="0 0 11 12" fill="none" xmlns="http://www.w3.org/2000/svg">
<path d="M0.362793 0.222753C0.120864 0.371089 -5.0063e-07 0.546926 -4.91749e-07 0.750098L-3.2786e-08 11.2499C-2.39015e-08 11.4532 0.120864 11.6289 0.362794 11.7774C0.604991 11.9258 0.891333 12 1.22236 12C1.55331 12 1.83965 11.9258 2.08165 11.7774L10.6369 6.52743C10.8789 6.3788 11 6.20309 11 6C11 5.79691 10.8789 5.62103 10.6369 5.47269L2.08158 0.222752C1.83965 0.0744561 1.55331 8.85777e-07 1.22229 9.00246e-07C0.891333 9.14713e-07 0.60499 0.0744562 0.362793 0.222753Z" fill="#8C8C8C"/>
</svg>
