<svg width="20" height="25" viewBox="0 0 20 25" fill="none" xmlns="http://www.w3.org/2000/svg">
<path d="M17.27 7.14425L18.707 5.70725L17.293 4.29275L15.7558 5.83C14.3514 4.83479 12.7127 4.22143 11 4.05V2H13V0H7.00001V2H9.00001V4.05C7.28735 4.22143 5.64859 4.83479 4.24426 5.83L2.70701 4.29275L1.29301 5.70725L2.73001 7.14425C1.38865 8.56445 0.492646 10.3464 0.152638 12.2701C-0.187371 14.1938 0.0435094 16.175 0.816767 17.9689C1.59002 19.7629 2.87179 21.2911 4.50378 22.3648C6.13577 23.4385 8.0465 24.0106 10 24.0106C11.9535 24.0106 13.8642 23.4385 15.4962 22.3648C17.1282 21.2911 18.41 19.7629 19.1832 17.9689C19.9565 16.175 20.1874 14.1938 19.8474 12.2701C19.5074 10.3464 18.6114 8.56445 17.27 7.14425ZM10 22C8.41776 22 6.87104 21.5308 5.55544 20.6518C4.23985 19.7727 3.21447 18.5233 2.60897 17.0615C2.00347 15.5997 1.84504 13.9911 2.15372 12.4393C2.46241 10.8874 3.22433 9.46197 4.34315 8.34315C5.46197 7.22433 6.88744 6.4624 8.43928 6.15372C9.99113 5.84504 11.5997 6.00346 13.0615 6.60896C14.5233 7.21447 15.7727 8.23985 16.6518 9.55544C17.5308 10.871 18 12.4178 18 14C17.9976 16.121 17.154 18.1544 15.6542 19.6542C14.1545 21.154 12.121 21.9976 10 22Z" fill="white"/>
<path d="M10 8V14H4C4 15.1867 4.35189 16.3467 5.01118 17.3334C5.67047 18.3201 6.60754 19.0892 7.7039 19.5433C8.80026 19.9974 10.0067 20.1162 11.1705 19.8847C12.3344 19.6532 13.4035 19.0818 14.2426 18.2426C15.0818 17.4035 15.6532 16.3344 15.8847 15.1705C16.1162 14.0067 15.9974 12.8003 15.5433 11.7039C15.0892 10.6075 14.3201 9.67047 13.3334 9.01118C12.3467 8.35189 11.1867 8 10 8Z" fill="white"/>
</svg>
