<svg width="24" height="24" viewBox="0 0 24 24" fill="none" xmlns="http://www.w3.org/2000/svg">
<path d="M12 0C5.3832 0 0 5.3832 0 12C0 18.6168 5.3832 24 12 24C18.6168 24 24 18.6168 24 12C24 5.3832 18.6168 0 12 0ZM21.5172 10.8H13.2V2.4828C15.3118 2.75202 17.2744 3.71488 18.7798 5.22024C20.2851 6.72559 21.248 8.6882 21.5172 10.8ZM2.4 12C2.4 7.1136 6.0732 3.0768 10.8 2.4828V12C10.8035 12.1831 10.8491 12.3629 10.9332 12.5256C10.9512 12.5616 10.9596 12.6012 10.9824 12.6372L16.0248 20.7048C14.7645 21.2931 13.3908 21.5986 12 21.6C6.7068 21.6 2.4 17.2932 2.4 12ZM18.0624 19.4352L14.166 13.2H21.5172C21.2095 15.6451 19.9723 17.8779 18.0624 19.4352Z" fill="white"/>
</svg>
