<svg width="21" height="28" viewBox="0 0 21 28" fill="none" xmlns="http://www.w3.org/2000/svg">
<path d="M10.1818 6.36364V10.1818L15.2727 5.09091L10.1818 0V3.81818C4.55636 3.81818 0 8.37455 0 14C0 15.9982 0.585454 17.8564 1.57818 19.4218L3.43636 17.5636C2.86364 16.5073 2.54545 15.2855 2.54545 14C2.54545 9.78727 5.96909 6.36364 10.1818 6.36364ZM18.7855 8.57818L16.9273 10.4364C17.4873 11.5055 17.8182 12.7145 17.8182 14C17.8182 18.2127 14.3945 21.6364 10.1818 21.6364V17.8182L5.09091 22.9091L10.1818 28V24.1818C15.8073 24.1818 20.3636 19.6255 20.3636 14C20.3636 12.0018 19.7782 10.1436 18.7855 8.57818Z" fill="#506081"/>
</svg>
