<svg width="44" height="44" viewBox="0 0 44 44" fill="none" xmlns="http://www.w3.org/2000/svg">
<path d="M17.4167 38.5H4.58333C2.057 38.5 0 36.4448 0 33.9167V10.0833C0 7.55517 2.057 5.5 4.58333 5.5H8.25C8.756 5.5 9.16667 5.91067 9.16667 6.41667C9.16667 6.92267 8.756 7.33333 8.25 7.33333H4.58333C3.06717 7.33333 1.83333 8.56717 1.83333 10.0833V33.9167C1.83333 35.4328 3.06717 36.6667 4.58333 36.6667H17.4167C17.9227 36.6667 18.3333 37.0773 18.3333 37.5833C18.3333 38.0893 17.9227 38.5 17.4167 38.5Z" fill="#0B204C"/>
<path d="M30.25 16.5C29.744 16.5 29.3333 16.0893 29.3333 15.5833V10.0833C29.3333 8.56717 28.0995 7.33333 26.5833 7.33333H22.9167C22.4107 7.33333 22 6.92267 22 6.41667C22 5.91067 22.4107 5.5 22.9167 5.5H26.5833C29.1097 5.5 31.1667 7.55517 31.1667 10.0833V15.5833C31.1667 16.0893 30.756 16.5 30.25 16.5Z" fill="#0B204C"/>
<path d="M21.0835 11H10.0835C8.56733 11 7.3335 9.76617 7.3335 8.25V4.58333C7.3335 4.07733 7.74416 3.66667 8.25016 3.66667H11.0918C11.519 1.57667 13.3688 0 15.5835 0C17.7982 0 19.648 1.57667 20.0752 3.66667H22.9168C23.4228 3.66667 23.8335 4.07733 23.8335 4.58333V8.25C23.8335 9.76617 22.5997 11 21.0835 11ZM9.16683 5.5V8.25C9.16683 8.75417 9.5775 9.16667 10.0835 9.16667H21.0835C21.5895 9.16667 22.0002 8.75417 22.0002 8.25V5.5H19.2502C18.7442 5.5 18.3335 5.08933 18.3335 4.58333C18.3335 3.06717 17.0997 1.83333 15.5835 1.83333C14.0673 1.83333 12.8335 3.06717 12.8335 4.58333C12.8335 5.08933 12.4228 5.5 11.9168 5.5H9.16683Z" fill="#0B204C"/>
<path d="M32.0832 44C25.5125 44 20.1665 38.654 20.1665 32.0833C20.1665 25.5126 25.5125 20.1666 32.0832 20.1666C38.6538 20.1666 43.9998 25.5126 43.9998 32.0833C43.9998 38.654 38.6538 44 32.0832 44ZM32.0832 22C26.5227 22 21.9998 26.5246 21.9998 32.0833C21.9998 37.642 26.5227 42.1666 32.0832 42.1666C37.6437 42.1666 42.1665 37.642 42.1665 32.0833C42.1665 26.5246 37.6437 22 32.0832 22Z" fill="#0B204C"/>
<path d="M32.0832 38.5C31.5772 38.5 31.1665 38.0893 31.1665 37.5833V26.5833C31.1665 26.0773 31.5772 25.6666 32.0832 25.6666C32.5892 25.6666 32.9998 26.0773 32.9998 26.5833V37.5833C32.9998 38.0893 32.5892 38.5 32.0832 38.5Z" fill="#0B204C"/>
<path d="M37.5832 33H26.5832C26.0772 33 25.6665 32.5893 25.6665 32.0833C25.6665 31.5773 26.0772 31.1666 26.5832 31.1666H37.5832C38.0892 31.1666 38.4998 31.5773 38.4998 32.0833C38.4998 32.5893 38.0892 33 37.5832 33Z" fill="#0B204C"/>
<path d="M24.75 16.5H6.41667C5.91067 16.5 5.5 16.0893 5.5 15.5833C5.5 15.0773 5.91067 14.6666 6.41667 14.6666H24.75C25.256 14.6666 25.6667 15.0773 25.6667 15.5833C25.6667 16.0893 25.256 16.5 24.75 16.5Z" fill="#0B204C"/>
<path d="M19.25 22H6.41667C5.91067 22 5.5 21.5893 5.5 21.0833C5.5 20.5773 5.91067 20.1666 6.41667 20.1666H19.25C19.756 20.1666 20.1667 20.5773 20.1667 21.0833C20.1667 21.5893 19.756 22 19.25 22Z" fill="#0B204C"/>
<path d="M15.5833 27.5H6.41667C5.91067 27.5 5.5 27.0893 5.5 26.5833C5.5 26.0773 5.91067 25.6666 6.41667 25.6666H15.5833C16.0893 25.6666 16.5 26.0773 16.5 26.5833C16.5 27.0893 16.0893 27.5 15.5833 27.5Z" fill="#0B204C"/>
</svg>
