<svg width="32" height="31" viewBox="0 0 32 31" fill="none" xmlns="http://www.w3.org/2000/svg">
<path d="M15.85 21.3571C15.85 21.7808 16.1651 22.15 16.5833 22.15C17.0016 22.15 17.3167 21.7808 17.3167 21.3571V13.6429C17.3167 13.2192 17.0016 12.85 16.5833 12.85C16.1651 12.85 15.85 13.2192 15.85 13.6429V21.3571Z" fill="white" stroke="white" stroke-width="0.3"/>
<path d="M12.6429 18.3167H20.3571C20.7808 18.3167 21.15 18.0016 21.15 17.5833C21.15 17.1651 20.7808 16.85 20.3571 16.85H12.6429C12.2192 16.85 11.85 17.1651 11.85 17.5833C11.85 18.0016 12.2192 18.3167 12.6429 18.3167Z" fill="white" stroke="white" stroke-width="0.3"/>
<path fill-rule="evenodd" clip-rule="evenodd" d="M16 28.7778C3.86667 28.7778 2 26.0556 2 17.8889C2 9.72222 3.86667 7 16 7C28.1333 7 30 9.72222 30 17.8889C30 26.0556 28.1333 28.7778 16 28.7778Z" stroke="white" stroke-width="3" stroke-linecap="round" stroke-linejoin="round"/>
<path d="M2 17.5556V7.44444C2 3.35333 2.72644 2 7.446 2C11.6522 2 12.682 3.07956 12.8531 6.22644" stroke="white" stroke-width="3" stroke-linecap="round" stroke-linejoin="round"/>
</svg>
