<svg width="44" height="44" viewBox="0 0 44 44" fill="none" xmlns="http://www.w3.org/2000/svg">
<path d="M1.76 0H11.1408C11.6076 0 12.0552 0.185428 12.3853 0.515492C12.7154 0.845556 12.9008 1.29322 12.9008 1.76V9.5128C12.9008 9.97955 12.7154 10.4272 12.3853 10.7573C12.0552 11.0874 11.6076 11.2728 11.1408 11.2728H1.76C1.29322 11.2728 0.845556 11.0874 0.515492 10.7573C0.185428 10.4272 0 9.97955 0 9.5128V1.76C0 1.29322 0.185428 0.845556 0.515492 0.515492C0.845556 0.185428 1.29322 0 1.76 0ZM0 15.84V35.2C0 35.6668 0.185428 36.1144 0.515492 36.4445C0.845556 36.7746 1.29322 36.96 1.76 36.96H11.1408C11.6076 36.96 12.0552 36.7746 12.3853 36.4445C12.7154 36.1144 12.9008 35.6668 12.9008 35.2V15.84C12.9008 15.3732 12.7154 14.9256 12.3853 14.5955C12.0552 14.2654 11.6076 14.08 11.1408 14.08H1.76C1.29322 14.08 0.845556 14.2654 0.515492 14.5955C0.185428 14.9256 0 15.3732 0 15.84ZM15.5496 1.76V9.5128C15.5496 9.97955 15.735 10.4272 16.0651 10.7573C16.3952 11.0874 16.8428 11.2728 17.3096 11.2728H26.6904C27.1572 11.2728 27.6048 11.0874 27.9349 10.7573C28.265 10.4272 28.4504 9.97955 28.4504 9.5128V1.76C28.4504 1.29322 28.265 0.845556 27.9349 0.515492C27.6048 0.185428 27.1572 0 26.6904 0H17.3096C16.8428 0 16.3952 0.185428 16.0651 0.515492C15.735 0.845556 15.5496 1.29322 15.5496 1.76ZM15.5496 15.84V42.24C15.5496 42.7068 15.735 43.1544 16.0651 43.4845C16.3952 43.8146 16.8428 44 17.3096 44H26.6904C27.1572 44 27.6048 43.8146 27.9349 43.4845C28.265 43.1544 28.4504 42.7068 28.4504 42.24V15.84C28.4504 15.3732 28.265 14.9256 27.9349 14.5955C27.6048 14.2654 27.1572 14.08 26.6904 14.08H17.3096C16.8428 14.08 16.3952 14.2654 16.0651 14.5955C15.735 14.9256 15.5496 15.3732 15.5496 15.84ZM31.0992 1.76V9.5128C31.0992 9.97955 31.2846 10.4272 31.6147 10.7573C31.9448 11.0874 32.3924 11.2728 32.8592 11.2728H42.24C42.7068 11.2728 43.1544 11.0874 43.4845 10.7573C43.8146 10.4272 44 9.97955 44 9.5128V1.76C44 1.29322 43.8146 0.845556 43.4845 0.515492C43.1544 0.185428 42.7068 0 42.24 0H32.8592C32.3924 0 31.9448 0.185428 31.6147 0.515492C31.2846 0.845556 31.0992 1.29322 31.0992 1.76ZM31.0992 15.84V27.28C31.0992 27.7468 31.2846 28.1944 31.6147 28.5245C31.9448 28.8546 32.3924 29.04 32.8592 29.04H42.24C42.7068 29.04 43.1544 28.8546 43.4845 28.5245C43.8146 28.1944 44 27.7468 44 27.28V15.84C44 15.3732 43.8146 14.9256 43.4845 14.5955C43.1544 14.2654 42.7068 14.08 42.24 14.08H32.8592C32.3924 14.08 31.9448 14.2654 31.6147 14.5955C31.2846 14.9256 31.0992 15.3732 31.0992 15.84Z" fill="#14AAF5"/>
</svg>
