<svg width="12" height="14" viewBox="0 0 12 14" fill="none" xmlns="http://www.w3.org/2000/svg">
<path fill-rule="evenodd" clip-rule="evenodd" d="M8.66667 7.66665H6.66667C6.3 7.66665 6 7.96665 6 8.33331V10.3333C6 10.7 6.3 11 6.66667 11H8.66667C9.03333 11 9.33333 10.7 9.33333 10.3333V8.33331C9.33333 7.96665 9.03333 7.66665 8.66667 7.66665ZM8.66667 0.99998V1.66665H3.33333V0.99998C3.33333 0.633313 3.03333 0.333313 2.66667 0.333313C2.3 0.333313 2 0.633313 2 0.99998V1.66665H1.33333C0.593333 1.66665 0.00666667 2.26665 0.00666667 2.99998L0 12.3333C0 13.0666 0.593333 13.6666 1.33333 13.6666H10.6667C11.4 13.6666 12 13.0666 12 12.3333V2.99998C12 2.26665 11.4 1.66665 10.6667 1.66665H10V0.99998C10 0.633313 9.7 0.333313 9.33333 0.333313C8.96667 0.333313 8.66667 0.633313 8.66667 0.99998ZM10 12.3333H2C1.63333 12.3333 1.33333 12.0333 1.33333 11.6666V4.99998H10.6667V11.6666C10.6667 12.0333 10.3667 12.3333 10 12.3333Z" fill="#0B204C"/>
</svg>
