<svg width="14" height="16" viewBox="0 0 14 16" fill="none" xmlns="http://www.w3.org/2000/svg">
<path d="M14 14.4V3.2C14 2.3176 13.3023 1.6 12.4444 1.6H10.8889V0H9.33333V1.6H4.66667V0H3.11111V1.6H1.55556C0.697667 1.6 0 2.3176 0 3.2V14.4C0 15.2824 0.697667 16 1.55556 16H12.4444C13.3023 16 14 15.2824 14 14.4ZM4.66667 12.8H3.11111V11.2H4.66667V12.8ZM4.66667 9.6H3.11111V8H4.66667V9.6ZM7.77778 12.8H6.22222V11.2H7.77778V12.8ZM7.77778 9.6H6.22222V8H7.77778V9.6ZM10.8889 12.8H9.33333V11.2H10.8889V12.8ZM10.8889 9.6H9.33333V8H10.8889V9.6ZM12.4444 5.6H1.55556V4H12.4444V5.6Z" fill="#0B204C"/>
</svg>
