<svg width="19" height="19" viewBox="0 0 19 19" fill="none" xmlns="http://www.w3.org/2000/svg">
<path d="M17 10.0037C17 15.6287 15.934 17.938 9 17.938C2.066 17.938 1 15.0037 1 10.0037C1 5.00369 2 2.93799 8 2.93799" stroke="#0B204C" stroke-width="2" stroke-linecap="round" stroke-linejoin="round"/>
<path fill-rule="evenodd" clip-rule="evenodd" d="M11.0004 7.93795C9.95445 6.89195 9.21645 5.72195 12.0004 2.93795C14.7844 0.153947 15.9544 0.891947 17.0004 1.93795C18.0464 2.98395 18.7844 4.15395 16.0004 6.93795C13.2164 9.72195 12.0464 8.98395 11.0004 7.93795Z" stroke="#0B204C" stroke-width="2" stroke-linecap="round" stroke-linejoin="round"/>
<path d="M8.3537 10.8571C8.15796 11.0529 7.84254 11.0529 7.6468 10.8571C7.45107 10.6614 7.45107 10.346 7.6468 10.1502C7.84254 9.95448 8.15796 9.95448 8.3537 10.1502C8.54943 10.346 8.54943 10.6614 8.3537 10.8571Z" fill="#333333" stroke="#0B204C"/>
</svg>
