<svg width="16" height="16" viewBox="0 0 16 16" fill="none" xmlns="http://www.w3.org/2000/svg">
<path d="M13.8765 4.30938L12.864 5.32188L10.3328 2.7875L11.3453 1.775C11.5515 1.56876 11.9109 1.56876 12.1171 1.775L13.8765 3.53751C14.089 3.75001 14.089 4.09688 13.8765 4.30938ZM5.41714 12.7781L2.88589 10.2438L9.42964 3.69063L11.9609 6.22501L5.41714 12.7781ZM2.30152 11.4656L4.19527 13.3625L1.55777 14.1063L2.30152 11.4656ZM14.7796 2.63438L13.0203 0.87188C12.6765 0.52813 11.4359 -0.12187 10.4453 0.87188L1.52964 9.79376C1.45152 9.87188 1.39527 9.96563 1.36714 10.0719L0.0233908 14.8563C-0.0391092 15.0781 0.0265158 15.3156 0.185891 15.4813C0.348391 15.6469 0.673391 15.675 0.810891 15.6438L5.59214 14.2969C5.69839 14.2688 5.79214 14.2125 5.87027 14.1344L14.7796 5.21251C15.489 4.50313 15.489 3.34688 14.7796 2.63438Z" fill="#0B204C"/>
</svg>
