<svg width="20" height="16" viewBox="0 0 20 16" fill="none" xmlns="http://www.w3.org/2000/svg">
<path d="M18.6174 1H1.38112C1.08489 1 0.844727 1.24016 0.844727 1.5364V4.7682C0.844727 5.06443 1.08489 5.3046 1.38112 5.3046H1.92199V14.4636C1.92199 14.7598 2.16216 15 2.45839 15H17.5401C17.8364 15 18.0765 14.7598 18.0765 14.4636V5.3046H18.6174C18.9136 5.3046 19.1538 5.06443 19.1538 4.7682V1.5364C19.1538 1.24016 18.9136 1 18.6174 1ZM17.0037 13.9272H2.99479V5.3046H17.0037V13.9272ZM18.081 4.2318H1.91752V2.0728H18.081V4.2318Z" fill="white" stroke="white" stroke-width="0.5"/>
<path d="M8.92226 9.61365H11.0768C11.9666 9.61365 12.6905 8.88977 12.6905 7.99999C12.6905 7.11021 11.9666 6.38632 11.0768 6.38632H8.92226C8.03248 6.38632 7.30859 7.11021 7.30859 7.99999C7.30859 8.88977 8.03248 9.61365 8.92226 9.61365ZM8.92226 7.45912H11.0768C11.375 7.45912 11.6177 7.70175 11.6177 7.99999C11.6177 8.29822 11.375 8.54086 11.0768 8.54086H8.92226C8.62402 8.54086 8.38139 8.29822 8.38139 7.99999C8.38139 7.70175 8.62402 7.45912 8.92226 7.45912Z" fill="white" stroke="white" stroke-width="0.5"/>
</svg>
