<svg width="34" height="34" viewBox="0 0 34 34" fill="none" xmlns="http://www.w3.org/2000/svg">
<rect opacity="0.2" width="34" height="34" rx="8" fill="#7E7E7E"/>
<path d="M22.8765 12.9659L21.864 13.9784L19.3328 11.444L20.3453 10.4315C20.5515 10.2252 20.9109 10.2252 21.1171 10.4315L22.8765 12.194C23.089 12.4065 23.089 12.7534 22.8765 12.9659ZM14.4171 21.4346L11.8859 18.9002L18.4296 12.3471L20.9609 14.8815L14.4171 21.4346V21.4346ZM11.3015 20.1221L13.1953 22.019L10.5578 22.7628L11.3015 20.1221ZM23.7796 11.2909L22.0203 9.52837C21.6765 9.18462 20.4359 8.53462 19.4453 9.52837L10.5296 18.4502C10.4515 18.5284 10.3953 18.6221 10.3671 18.7284L9.02339 23.5128C8.96089 23.7346 9.02652 23.9721 9.18589 24.1378C9.34839 24.3034 9.67339 24.3315 9.81089 24.3003L14.5921 22.9534C14.6984 22.9253 14.7921 22.869 14.8703 22.7909L23.7796 13.869C24.489 13.1596 24.489 12.0034 23.7796 11.2909V11.2909Z" fill="#0B204C"/>
</svg>
