<svg width="27" height="27" viewBox="0 0 27 27" fill="none" xmlns="http://www.w3.org/2000/svg">
<path d="M24.0252 7.1181L22.298 8.8453L17.98 4.52196L19.7072 2.79475C20.059 2.44291 20.6721 2.44291 21.0239 2.79475L24.0252 5.80137C24.3877 6.16387 24.3877 6.7556 24.0252 7.1181ZM9.59452 21.5648L5.27651 17.2414L16.4394 6.06258L20.7574 10.3859L9.59452 21.5648ZM4.27963 19.3258L7.51014 22.5617L3.01088 23.8304L4.27963 19.3258ZM25.5658 4.26074L22.5646 1.25413C21.9782 0.66773 19.8618 -0.441093 18.1719 1.25413L2.9629 16.4738C2.82963 16.6071 2.73367 16.767 2.6857 16.9482L0.393418 25.1098C0.2868 25.4883 0.398749 25.8935 0.670623 26.176C0.947829 26.4585 1.50224 26.5065 1.7368 26.4532L9.89305 24.1556C10.0743 24.1076 10.2342 24.0117 10.3675 23.8784L25.5658 8.65872C26.776 7.44861 26.776 5.47619 25.5658 4.26074Z" fill="#0B204C"/>
</svg>
