<svg width="20" height="20" viewBox="0 0 20 20" fill="none" xmlns="http://www.w3.org/2000/svg">
<path d="M7.32922 0H1.7073C0.765898 0 0 0.765898 0 1.7073V7.32922C0 8.27063 0.765898 9.03652 1.7073 9.03652H7.32922C8.27063 9.03652 9.03652 8.27063 9.03652 7.32922V1.7073C9.03652 0.765898 8.27063 0 7.32922 0Z" fill="#919BB3"/>
<path d="M18.2931 0H12.6712C11.7298 0 10.9639 0.765898 10.9639 1.7073V7.32922C10.9639 8.27063 11.7298 9.03652 12.6712 9.03652H18.2931C19.2345 9.03652 20.0004 8.27063 20.0004 7.32922V1.7073C20.0004 0.765898 19.2345 0 18.2931 0Z" fill="#919BB3"/>
<path d="M7.32922 10.9635H1.7073C0.765898 10.9635 0 11.7294 0 12.6708V18.2927C0 19.2341 0.765898 20 1.7073 20H7.32922C8.27063 20 9.03652 19.2341 9.03652 18.2927V12.6708C9.03652 11.7294 8.27063 10.9635 7.32922 10.9635Z" fill="#919BB3"/>
<path d="M18.2931 10.9635H12.6712C11.7298 10.9635 10.9639 11.7294 10.9639 12.6708V18.2927C10.9639 19.2341 11.7298 20 12.6712 20H18.2931C19.2345 20 20.0004 19.2341 20.0004 18.2927V12.6708C20.0004 11.7294 19.2345 10.9635 18.2931 10.9635Z" fill="#919BB3"/>
</svg>
