<svg width="20" height="30" viewBox="0 0 20 30" fill="none" xmlns="http://www.w3.org/2000/svg">
    <path
        d="M19.8438 14.1C19.8438 13.634 19.466 13.2562 19 13.2562C18.534 13.2562 18.1562 13.634 18.1562 14.1C18.1562 18.5973 14.4974 22.2562 10 22.2562C5.50264 22.2562 1.84375 18.5973 1.84375 14.1C1.84375 13.634 1.46598 13.2562 1 13.2562C0.534025 13.2562 0.15625 13.634 0.15625 14.1C0.15625 19.2436 4.12193 23.4778 9.15625 23.9072V27.7125H4.6C4.13402 27.7125 3.75625 28.0903 3.75625 28.5562C3.75625 29.0222 4.13402 29.4 4.6 29.4H15.4C15.866 29.4 16.2437 29.0222 16.2437 28.5562C16.2437 28.0903 15.866 27.7125 15.4 27.7125H10.8438V23.9072C15.8781 23.4778 19.8438 19.2436 19.8438 14.1Z"
        fill="white" />
    <path
        d="M13.15 14.9437C12.684 14.9437 12.3062 14.566 12.3062 14.1C12.3062 13.634 12.684 13.2562 13.15 13.2562H16.2437V11.3437H12.25C11.784 11.3437 11.4062 10.966 11.4062 10.5C11.4062 10.034 11.784 9.65623 12.25 9.65623H16.2437V7.74373H13.15C12.684 7.74373 12.3062 7.36595 12.3062 6.89998C12.3062 6.434 12.684 6.05623 13.15 6.05623H16.2222C15.9668 3.00455 13.4253 0.599976 10.3375 0.599976H9.66248C6.57469 0.599976 4.03309 3.00461 3.77766 6.05623H6.84998C7.31595 6.05623 7.69373 6.434 7.69373 6.89998C7.69373 7.36595 7.31595 7.74373 6.84998 7.74373H3.75623V9.65623H7.74998C8.21595 9.65623 8.59373 10.034 8.59373 10.5C8.59373 10.966 8.21595 11.3437 7.74998 11.3437H3.75623V13.2562H6.84998C7.31595 13.2562 7.69373 13.634 7.69373 14.1C7.69373 14.566 7.31595 14.9437 6.84998 14.9437H3.77816C4.03584 17.9643 6.57632 20.3437 9.66248 20.3437H10.3375C13.4236 20.3437 15.9641 17.9643 16.2218 14.9437H13.15Z"
        fill="white" />
</svg>
