<svg width="18" height="18" viewBox="0 0 18 18" fill="none" xmlns="http://www.w3.org/2000/svg">
<path d="M13.287 5.97451V7.59377H4.71302V5.97451C4.71302 5.2228 3.8042 4.84635 3.27264 5.37787L0.247139 8.40338C-0.0823796 8.7329 -0.0823796 9.26709 0.247139 9.59661L3.27264 12.6221C3.80417 13.1536 4.71302 12.7772 4.71302 12.0255V10.4063H13.287V12.0255C13.287 12.7772 14.1958 13.1537 14.7274 12.6222L17.7529 9.59665C18.0824 9.26713 18.0824 8.73293 17.7529 8.40341L14.7274 5.37791C14.1958 4.84635 13.287 5.2228 13.287 5.97451Z" fill="#919BB3"/>
<path d="M12.0254 13.287H10.4061V4.71302H12.0254C12.7771 4.71302 13.1535 3.8042 12.622 3.27264L9.59649 0.247139C9.26698 -0.0823796 8.73278 -0.0823796 8.40326 0.247139L5.37776 3.27264C4.84623 3.80417 5.22268 4.71302 5.97439 4.71302H7.59361V13.287H5.97436C5.22265 13.287 4.8462 14.1958 5.37772 14.7274L8.40322 17.7529C8.73274 18.0824 9.26694 18.0824 9.59646 17.7529L12.622 14.7274C13.1535 14.1958 12.7771 13.287 12.0254 13.287Z" fill="#919BB3"/>
</svg>
