<svg width="20" height="18" viewBox="0 0 18 18" fill="none" xmlns="http://www.w3.org/2000/svg">
<path fill-rule="evenodd" clip-rule="evenodd" d="M7 8C7 8.553 6.552 9 6 9C5.448 9 5 8.553 5 8C5 7.447 5.448 7 6 7C6.552 7 7 7.447 7 8Z" fill="white"/>
<path fill-rule="evenodd" clip-rule="evenodd" d="M10 8C10 8.553 9.552 9 9 9C8.448 9 8 8.553 8 8C8 7.447 8.448 7 9 7C9.552 7 10 7.447 10 8Z" fill="white"/>
<path fill-rule="evenodd" clip-rule="evenodd" d="M13 8C13 8.553 12.552 9 12 9C11.448 9 11 8.553 11 8C11 7.447 11.448 7 12 7C12.552 7 13 7.447 13 8Z" fill="white"/>
<path fill-rule="evenodd" clip-rule="evenodd" d="M5 15H9C15.93 15 17 13.25 17 8C17 2.75 15.93 1 9 1C2.07 1 1 2.75 1 8V17L5 15Z" stroke="white" stroke-width="2" stroke-linecap="round" stroke-linejoin="round"/>
</svg>
