<svg width="18" height="18" viewBox="0 0 18 18" fill="none" xmlns="http://www.w3.org/2000/svg">
<path d="M13.8002 5.79979C13.8002 4.5268 13.2946 3.30596 12.3944 2.40583C11.4943 1.50569 10.2734 1 9.00046 1C7.72748 1 6.50663 1.50569 5.6065 2.40583C4.70637 3.30596 4.20067 4.5268 4.20067 5.79979C4.20067 11.3995 1.80078 12.9995 1.80078 12.9995H16.2001C16.2001 12.9995 13.8002 11.3995 13.8002 5.79979Z" stroke="white" stroke-width="2" stroke-linecap="round" stroke-linejoin="round"/>
<path d="M10.3841 16.1993C10.2434 16.4418 10.0416 16.643 9.79869 16.7829C9.55581 16.9228 9.28044 16.9965 9.00015 16.9965C8.71986 16.9965 8.44449 16.9228 8.2016 16.7829C7.95872 16.643 7.75685 16.4418 7.61621 16.1993" stroke="white" stroke-width="2" stroke-linecap="round" stroke-linejoin="round"/>
</svg>
