<svg width="12" height="12" viewBox="0 0 12 12" fill="none" xmlns="http://www.w3.org/2000/svg">
<path fill-rule="evenodd" clip-rule="evenodd" d="M1.125 10.6875C1.125 10.791 1.209 10.875 1.3125 10.875H3V9.9375C3 9.78832 3.05926 9.64524 3.16475 9.53975C3.27024 9.43426 3.41332 9.375 3.5625 9.375H5.4375C5.58668 9.375 5.72976 9.43426 5.83525 9.53975C5.94074 9.64524 6 9.78832 6 9.9375V10.875H7.6875C7.73723 10.875 7.78492 10.8552 7.82008 10.8201C7.85525 10.7849 7.875 10.7372 7.875 10.6875V1.3125C7.875 1.26277 7.85525 1.21508 7.82008 1.17992C7.78492 1.14475 7.73723 1.125 7.6875 1.125H1.3125C1.26277 1.125 1.21508 1.14475 1.17992 1.17992C1.14475 1.21508 1.125 1.26277 1.125 1.3125V10.6875ZM1.3125 12C0.964403 12 0.630564 11.8617 0.384422 11.6156C0.138281 11.3694 0 11.0356 0 10.6875L0 1.3125C0 0.588 0.588 0 1.3125 0H7.6875C8.412 0 9 0.588 9 1.3125V10.6875C9 10.7513 8.9955 10.8135 8.9865 10.875H10.6875C10.7372 10.875 10.7849 10.8552 10.8201 10.8201C10.8552 10.7849 10.875 10.7372 10.875 10.6875V6.21375C10.875 6.18291 10.8674 6.15253 10.8529 6.12532C10.8384 6.09811 10.8174 6.0749 10.7917 6.05775L10.0005 5.5305C9.93815 5.48992 9.88448 5.43738 9.84258 5.37591C9.80068 5.31444 9.77138 5.24528 9.75639 5.17242C9.7414 5.09955 9.74101 5.02444 9.75525 4.95143C9.76949 4.87841 9.79806 4.80895 9.83932 4.74705C9.88059 4.68515 9.93372 4.63206 9.99564 4.59084C10.0576 4.54961 10.127 4.52108 10.2001 4.50689C10.2731 4.49271 10.3482 4.49314 10.4211 4.50818C10.4939 4.52322 10.5631 4.55256 10.6245 4.5945L11.4157 5.12175C11.781 5.3655 12 5.775 12 6.21375V10.6875C12 11.0356 11.8617 11.3694 11.6156 11.6156C11.3694 11.8617 11.0356 12 10.6875 12H8.0625C8.0126 12.0001 7.96292 11.9935 7.91475 11.9805C7.8405 11.9932 7.76475 12 7.6875 12H5.4375C5.28832 12 5.14524 11.9407 5.03975 11.8352C4.93426 11.7298 4.875 11.5867 4.875 11.4375V10.5H4.125V11.4375C4.125 11.5867 4.06574 11.7298 3.96025 11.8352C3.85476 11.9407 3.71168 12 3.5625 12H1.3125ZM2.25 2.8125C2.25 2.66332 2.30926 2.52024 2.41475 2.41475C2.52024 2.30926 2.66332 2.25 2.8125 2.25H3.1875C3.33668 2.25 3.47976 2.30926 3.58525 2.41475C3.69074 2.52024 3.75 2.66332 3.75 2.8125C3.75 2.96168 3.69074 3.10476 3.58525 3.21025C3.47976 3.31574 3.33668 3.375 3.1875 3.375H2.8125C2.66332 3.375 2.52024 3.31574 2.41475 3.21025C2.30926 3.10476 2.25 2.96168 2.25 2.8125ZM2.8125 4.5C2.66332 4.5 2.52024 4.55926 2.41475 4.66475C2.30926 4.77024 2.25 4.91332 2.25 5.0625C2.25 5.21168 2.30926 5.35476 2.41475 5.46025C2.52024 5.56574 2.66332 5.625 2.8125 5.625H3.1875C3.33668 5.625 3.47976 5.56574 3.58525 5.46025C3.69074 5.35476 3.75 5.21168 3.75 5.0625C3.75 4.91332 3.69074 4.77024 3.58525 4.66475C3.47976 4.55926 3.33668 4.5 3.1875 4.5H2.8125ZM2.25 7.3125C2.25 7.16332 2.30926 7.02024 2.41475 6.91475C2.52024 6.80926 2.66332 6.75 2.8125 6.75H3.1875C3.33668 6.75 3.47976 6.80926 3.58525 6.91475C3.69074 7.02024 3.75 7.16332 3.75 7.3125C3.75 7.46168 3.69074 7.60476 3.58525 7.71025C3.47976 7.81574 3.33668 7.875 3.1875 7.875H2.8125C2.66332 7.875 2.52024 7.81574 2.41475 7.71025C2.30926 7.60476 2.25 7.46168 2.25 7.3125ZM5.8125 6.75C5.66332 6.75 5.52024 6.80926 5.41475 6.91475C5.30926 7.02024 5.25 7.16332 5.25 7.3125C5.25 7.46168 5.30926 7.60476 5.41475 7.71025C5.52024 7.81574 5.66332 7.875 5.8125 7.875H6.1875C6.33668 7.875 6.47976 7.81574 6.58525 7.71025C6.69074 7.60476 6.75 7.46168 6.75 7.3125C6.75 7.16332 6.69074 7.02024 6.58525 6.91475C6.47976 6.80926 6.33668 6.75 6.1875 6.75H5.8125ZM5.25 5.0625C5.25 4.91332 5.30926 4.77024 5.41475 4.66475C5.52024 4.55926 5.66332 4.5 5.8125 4.5H6.1875C6.33668 4.5 6.47976 4.55926 6.58525 4.66475C6.69074 4.77024 6.75 4.91332 6.75 5.0625C6.75 5.21168 6.69074 5.35476 6.58525 5.46025C6.47976 5.56574 6.33668 5.625 6.1875 5.625H5.8125C5.66332 5.625 5.52024 5.56574 5.41475 5.46025C5.30926 5.35476 5.25 5.21168 5.25 5.0625ZM5.8125 2.25C5.66332 2.25 5.52024 2.30926 5.41475 2.41475C5.30926 2.52024 5.25 2.66332 5.25 2.8125C5.25 2.96168 5.30926 3.10476 5.41475 3.21025C5.52024 3.31574 5.66332 3.375 5.8125 3.375H6.1875C6.33668 3.375 6.47976 3.31574 6.58525 3.21025C6.69074 3.10476 6.75 2.96168 6.75 2.8125C6.75 2.66332 6.69074 2.52024 6.58525 2.41475C6.47976 2.30926 6.33668 2.25 6.1875 2.25H5.8125Z" fill="#3C4D70"/>
</svg>
