<svg width="262" height="235" viewBox="0 0 262 235" fill="none" xmlns="http://www.w3.org/2000/svg">
<path d="M212.291 185.292L246.25 219.25M15.333 15.5H232.666M15.333 97H69.6663M15.333 178.5H69.6663M110.416 137.75C110.416 152.16 116.141 165.98 126.33 176.169C136.52 186.359 150.34 192.083 164.75 192.083C179.16 192.083 192.98 186.359 203.169 176.169C213.359 165.98 219.083 152.16 219.083 137.75C219.083 123.34 213.359 109.52 203.169 99.3305C192.98 89.1411 179.16 83.4167 164.75 83.4167C150.34 83.4167 136.52 89.1411 126.33 99.3305C116.141 109.52 110.416 123.34 110.416 137.75Z" stroke="#5A55CA" stroke-width="30" stroke-linecap="round" stroke-linejoin="round"/>
</svg>
