<svg width="40" height="40" viewBox="0 0 40 40" fill="none" xmlns="http://www.w3.org/2000/svg">
<path d="M22 8C25.3333 8 28.1667 9.16667 30.5 11.5C32.8333 13.8333 34 16.6667 34 20C34 23.3333 32.8333 26.1667 30.5 28.5C28.1667 30.8333 25.3333 32 22 32C18.7083 32 15.875 30.8333 13.5 28.5L15.4375 26.5625C17.2292 28.3958 19.4167 29.3125 22 29.3125C24.5833 29.3125 26.7812 28.4062 28.5938 26.5937C30.4062 24.7812 31.3125 22.5833 31.3125 20C31.3125 17.4167 30.4062 15.2187 28.5938 13.4062C26.7812 11.5937 24.5833 10.6875 22 10.6875C19.4167 10.6875 17.2188 11.5937 15.4062 13.4062C13.5938 15.2187 12.6875 17.4167 12.6875 20H16.6875L11.25 25.375L11.1875 25.1875L6 20H10C10 16.6667 11.1667 13.8333 13.5 11.5C15.8333 9.16667 18.6667 8 22 8ZM20.6875 14.6875H22.6875V20.3125L27.3125 23.125L26.375 24.75L20.6875 21.3125V14.6875Z" fill="#423CC7"/>
</svg>
