<svg width="21" height="17" viewBox="0 0 21 17" fill="none" xmlns="http://www.w3.org/2000/svg">
<path d="M14.4759 16V14.3333C14.4759 13.4492 14.121 12.6014 13.4892 11.9763C12.8574 11.3512 12.0005 11 11.107 11H4.36898C3.47547 11 2.61856 11.3512 1.98675 11.9763C1.35495 12.6014 1 13.4492 1 14.3333V16" stroke="white" stroke-width="2" stroke-linecap="round" stroke-linejoin="round"/>
<path d="M7.73812 7.66666C9.59876 7.66666 11.1071 6.17428 11.1071 4.33333C11.1071 2.49238 9.59876 1 7.73812 1C5.87749 1 4.36914 2.49238 4.36914 4.33333C4.36914 6.17428 5.87749 7.66666 7.73812 7.66666Z" stroke="white" stroke-width="2" stroke-linecap="round" stroke-linejoin="round"/>
<path d="M19.5297 16V14.3333C19.5291 13.5948 19.2807 12.8773 18.8233 12.2936C18.366 11.7099 17.7257 11.293 17.0029 11.1083" stroke="white" stroke-width="2" stroke-linecap="round" stroke-linejoin="round"/>
<path d="M13.6338 1.10837C14.3585 1.29195 15.0008 1.70895 15.4595 2.29363C15.9182 2.8783 16.1671 3.59739 16.1671 4.33753C16.1671 5.07768 15.9182 5.79677 15.4595 6.38144C15.0008 6.96611 14.3585 7.38312 13.6338 7.5667" stroke="white" stroke-width="2" stroke-linecap="round" stroke-linejoin="round"/>
</svg>
