<svg width="58" height="58" viewBox="0 0 58 58" fill="none" xmlns="http://www.w3.org/2000/svg">
<rect opacity="0.2" width="58" height="58" rx="8" fill="#5A55CA"/>
<path d="M24.8037 28.9982C24.8037 31.2225 26.6858 33.0258 29.0076 33.0258C31.3294 33.0258 33.2115 31.2225 33.2115 28.9982C33.2115 26.7737 31.3294 24.9705 29.0076 24.9705C26.6858 24.9705 24.8037 26.7738 24.8037 28.9982ZM29 20.6121C31.4039 20.6227 33.8957 21.2079 36.2544 22.3284C38.0058 23.1946 39.7126 24.4166 41.1941 25.925C41.9218 26.695 42.8499 27.8099 43 28.9995C42.9823 30.0299 41.877 31.3017 41.1941 32.0739C39.8048 33.5231 38.1425 34.711 36.2544 35.6714C34.0548 36.739 31.6201 37.3536 29 37.3878C26.5938 37.3769 24.1026 36.785 21.7465 35.6714C19.9951 34.8053 18.2875 33.5823 16.8059 32.0739C16.0782 31.304 15.1501 30.189 15 28.9995C15.0177 27.969 16.123 26.6971 16.8059 25.925C18.1952 24.4758 19.8584 23.2888 21.7465 22.3283C23.945 21.2616 26.3857 20.6512 29 20.6121ZM29.0018 22.6945C25.359 22.6945 22.406 25.5177 22.406 29.0004C22.406 32.483 25.359 35.3062 29.0018 35.3062C32.6445 35.3062 35.5975 32.483 35.5975 29.0004C35.5975 25.5177 32.6445 22.6945 29.0018 22.6945Z" fill="#5A55CA"/>
</svg>
