<svg width="25" height="17" viewBox="0 0 25 17" fill="none" xmlns="http://www.w3.org/2000/svg">
    <path
        d="M22.9167 16.6667H2.08333C0.932726 16.6667 0 15.7339 0 14.5833V2.08333C0 0.932726 0.932726 0 2.08333 0H22.9167C24.0673 0 25 0.932726 25 2.08333V14.5833C25 15.7339 24.0673 16.6667 22.9167 16.6667ZM5.55556 5.03472V3.29861C5.55556 3.01098 5.32235 2.77778 5.03472 2.77778H3.29861C3.01098 2.77778 2.77778 3.01098 2.77778 3.29861V5.03472C2.77778 5.32235 3.01098 5.55556 3.29861 5.55556H5.03472C5.32235 5.55556 5.55556 5.32235 5.55556 5.03472ZM9.72222 5.03472V3.29861C9.72222 3.01098 9.48902 2.77778 9.20139 2.77778H7.46528C7.17765 2.77778 6.94444 3.01098 6.94444 3.29861V5.03472C6.94444 5.32235 7.17765 5.55556 7.46528 5.55556H9.20139C9.48902 5.55556 9.72222 5.32235 9.72222 5.03472ZM13.8889 5.03472V3.29861C13.8889 3.01098 13.6557 2.77778 13.3681 2.77778H11.6319C11.3443 2.77778 11.1111 3.01098 11.1111 3.29861V5.03472C11.1111 5.32235 11.3443 5.55556 11.6319 5.55556H13.3681C13.6557 5.55556 13.8889 5.32235 13.8889 5.03472ZM18.0556 5.03472V3.29861C18.0556 3.01098 17.8224 2.77778 17.5347 2.77778H15.7986C15.511 2.77778 15.2778 3.01098 15.2778 3.29861V5.03472C15.2778 5.32235 15.511 5.55556 15.7986 5.55556H17.5347C17.8224 5.55556 18.0556 5.32235 18.0556 5.03472ZM22.2222 5.03472V3.29861C22.2222 3.01098 21.989 2.77778 21.7014 2.77778H19.9653C19.6776 2.77778 19.4444 3.01098 19.4444 3.29861V5.03472C19.4444 5.32235 19.6776 5.55556 19.9653 5.55556H21.7014C21.989 5.55556 22.2222 5.32235 22.2222 5.03472ZM7.63889 9.20139V7.46528C7.63889 7.17765 7.40569 6.94444 7.11806 6.94444H5.38194C5.09431 6.94444 4.86111 7.17765 4.86111 7.46528V9.20139C4.86111 9.48902 5.09431 9.72222 5.38194 9.72222H7.11806C7.40569 9.72222 7.63889 9.48902 7.63889 9.20139ZM11.8056 9.20139V7.46528C11.8056 7.17765 11.5724 6.94444 11.2847 6.94444H9.54861C9.26098 6.94444 9.02778 7.17765 9.02778 7.46528V9.20139C9.02778 9.48902 9.26098 9.72222 9.54861 9.72222H11.2847C11.5724 9.72222 11.8056 9.48902 11.8056 9.20139ZM15.9722 9.20139V7.46528C15.9722 7.17765 15.739 6.94444 15.4514 6.94444H13.7153C13.4276 6.94444 13.1944 7.17765 13.1944 7.46528V9.20139C13.1944 9.48902 13.4276 9.72222 13.7153 9.72222H15.4514C15.739 9.72222 15.9722 9.48902 15.9722 9.20139ZM20.1389 9.20139V7.46528C20.1389 7.17765 19.9057 6.94444 19.6181 6.94444H17.8819C17.5943 6.94444 17.3611 7.17765 17.3611 7.46528V9.20139C17.3611 9.48902 17.5943 9.72222 17.8819 9.72222H19.6181C19.9057 9.72222 20.1389 9.48902 20.1389 9.20139ZM5.55556 13.3681V11.6319C5.55556 11.3443 5.32235 11.1111 5.03472 11.1111H3.29861C3.01098 11.1111 2.77778 11.3443 2.77778 11.6319V13.3681C2.77778 13.6557 3.01098 13.8889 3.29861 13.8889H5.03472C5.32235 13.8889 5.55556 13.6557 5.55556 13.3681ZM18.0556 13.3681V11.6319C18.0556 11.3443 17.8224 11.1111 17.5347 11.1111H7.46528C7.17765 11.1111 6.94444 11.3443 6.94444 11.6319V13.3681C6.94444 13.6557 7.17765 13.8889 7.46528 13.8889H17.5347C17.8224 13.8889 18.0556 13.6557 18.0556 13.3681ZM22.2222 13.3681V11.6319C22.2222 11.3443 21.989 11.1111 21.7014 11.1111H19.9653C19.6776 11.1111 19.4444 11.3443 19.4444 11.6319V13.3681C19.4444 13.6557 19.6776 13.8889 19.9653 13.8889H21.7014C21.989 13.8889 22.2222 13.6557 22.2222 13.3681Z"
        fill="black" fill-opacity="0.5" />
</svg>
