<svg width="16" height="18" viewBox="0 0 16 18" fill="none" xmlns="http://www.w3.org/2000/svg">
<path d="M10.9323 2.94365C10.5949 2.79624 10.2019 2.95028 10.0545 3.28769C9.90709 3.62509 10.0611 4.0181 10.3985 4.16551C12.5677 5.11314 13.9994 7.25856 13.9994 9.66664C13.9994 12.9802 11.3128 15.6667 7.99939 15.6667C4.68555 15.6667 1.99934 12.9805 1.99934 9.66664C1.99934 7.25909 3.4306 5.11367 5.59912 4.16541C5.93646 4.01791 6.09037 3.62484 5.94284 3.2875C5.79534 2.95015 5.40227 2.79624 5.06493 2.94378C2.41525 4.10238 0.666016 6.72446 0.666016 9.66661C0.666016 13.7168 3.9492 17 7.99942 17C12.0492 17 15.3328 13.7166 15.3328 9.66661C15.3328 6.72378 13.5829 4.10157 10.9323 2.94365Z" fill="white" stroke="white" stroke-width="0.6"/>
<path d="M7.99967 8.3334C8.36786 8.3334 8.66633 8.03493 8.66633 7.66674V1.66669C8.66636 1.29847 8.36786 1 7.99967 1C7.63148 1 7.33301 1.29847 7.33301 1.66666V7.66671C7.33301 8.0349 7.63148 8.3334 7.99967 8.3334Z" fill="white" stroke="white" stroke-width="0.6"/>
</svg>
