<svg width="4" height="18" viewBox="0 0 4 18" fill="none" xmlns="http://www.w3.org/2000/svg">
<path d="M1.99995 3.99989C3.10449 3.99989 3.9999 3.10449 3.9999 1.99995C3.9999 0.895407 3.10449 0 1.99995 0C0.895407 0 0 0.895407 0 1.99995C0 3.10449 0.895407 3.99989 1.99995 3.99989Z" fill="#D8DCE4"/>
<path d="M2.00007 11C3.10461 11 4.00002 10.1046 4.00002 9.00007C4.00002 7.89553 3.10461 7.00012 2.00007 7.00012C0.895529 7.00012 0.00012207 7.89553 0.00012207 9.00007C0.00012207 10.1046 0.895529 11 2.00007 11Z" fill="#D8DCE4"/>
<path d="M2.00007 17.9997C3.10461 17.9997 4.00002 17.1043 4.00002 15.9998C4.00002 14.8952 3.10461 13.9998 2.00007 13.9998C0.895529 13.9998 0.00012207 14.8952 0.00012207 15.9998C0.00012207 17.1043 0.895529 17.9997 2.00007 17.9997Z" fill="#D8DCE4"/>
</svg>
