<svg width="20" height="20" viewBox="0 0 20 20" fill="none" xmlns="http://www.w3.org/2000/svg">
<path d="M12.7667 2.55998L10.3706 0.163927C10.262 0.0553112 10.1171 -0.000297593 9.96739 2.76044e-05C9.81487 -0.00143578 9.66674 0.0553112 9.55813 0.163927L7.21151 2.51055C6.99167 2.73038 6.99167 3.08778 7.21151 3.30745L7.5141 3.61004C7.72629 3.82223 8.09669 3.82223 8.30905 3.61004L9.2074 2.70973V6.01813C9.2074 6.02821 9.21325 6.0365 9.21504 6.04593C9.23943 6.33422 9.48122 6.56235 9.77601 6.56235H10.2036C10.5144 6.56235 10.7698 6.30999 10.7698 5.99927V5.62984C10.7698 5.62822 10.7698 5.62708 10.7698 5.62578V2.75884L11.6685 3.65931C11.8883 3.87914 12.2449 3.87914 12.4646 3.65931L12.7667 3.35704C12.9865 3.13704 12.9865 2.77949 12.7667 2.55998Z" fill="#0B204C"/>
<path d="M12.7661 16.6435L12.4637 16.3404C12.2515 16.1279 11.8809 16.1279 11.6684 16.3404L10.7697 17.2408V14.3866C10.7697 14.385 10.7697 14.384 10.7697 14.3825V14.0131C10.7697 13.7022 10.5141 13.4375 10.2037 13.4375H9.77573C9.48126 13.4375 9.23948 13.6715 9.21493 13.9601C9.21314 13.9697 9.20729 13.9843 9.20729 13.9942V17.2903L8.30893 16.39C8.09657 16.1776 7.72536 16.1776 7.513 16.39L7.21057 16.6926C6.99106 16.9122 6.99139 17.2698 7.21122 17.4896L9.55801 19.8361C9.66386 19.9423 9.80516 20 9.95101 20H9.97215C10.1232 20 10.2642 19.9424 10.3702 19.8361L12.7661 17.4402C12.9859 17.2205 12.9859 16.8631 12.7661 16.6435Z" fill="#0B204C"/>
<path d="M5.97432 9.21854H5.92619H5.6031C5.60197 9.21854 5.60083 9.21854 5.59953 9.21854H2.75893L3.6594 8.32295C3.76558 8.21693 3.82395 8.07775 3.82395 7.92702C3.82395 7.77613 3.76558 7.6358 3.6594 7.52995L3.3568 7.22801C3.13697 7.00817 2.77942 7.0085 2.55991 7.22833L0.163854 9.62422C0.0552379 9.73268 -0.00280983 9.8782 0.000116948 10.0275C-0.00297243 10.1828 0.0552379 10.3281 0.163854 10.4367L2.51048 12.7835C2.62039 12.8934 2.76462 12.9484 2.90901 12.9484C3.05339 12.9484 3.19762 12.8934 3.30754 12.7835L3.60997 12.4811C3.71615 12.3751 3.77468 12.2334 3.77468 12.0827C3.77468 11.9318 3.71631 11.7887 3.60997 11.6829L2.70982 10.7811H5.99139C6.00131 10.7811 6.01757 10.7787 6.027 10.7769C6.31545 10.7525 6.55105 10.514 6.55105 10.2193V9.79105C6.55105 9.48065 6.28504 9.21854 5.97432 9.21854Z" fill="#0B204C"/>
<path d="M19.8133 9.62439L17.4172 7.22866C17.1976 7.00882 16.84 7.00882 16.6204 7.22866L16.3181 7.53125C16.2119 7.6371 16.1534 7.77873 16.1534 7.92946C16.1534 8.08035 16.2117 8.21693 16.3181 8.32295L17.2184 9.21854H14.3596C14.3581 9.21854 14.357 9.21854 14.3557 9.21854H13.9864C13.6757 9.21854 13.4263 9.48049 13.4263 9.79105V10.2193C13.4263 10.514 13.6524 10.7522 13.9411 10.7767C13.9506 10.7787 13.9576 10.7811 13.9674 10.7811H17.2677L16.367 11.6827C16.261 11.7886 16.2025 11.9313 16.2025 12.0817C16.2025 12.2328 16.2608 12.3747 16.367 12.4808L16.6698 12.7834C16.7795 12.8933 16.9238 12.9484 17.0682 12.9484C17.2125 12.9484 17.3566 12.8934 17.4665 12.7835L19.8135 10.4367C19.9218 10.3284 19.9798 10.1829 19.9772 10.0335C19.9796 9.8782 19.9216 9.73268 19.8133 9.62439Z" fill="#0B204C"/>
<path d="M9.989 8.43643C9.12707 8.43643 8.42578 9.13772 8.42578 9.99982C8.42578 10.8618 9.12707 11.5632 9.989 11.5632C10.8509 11.5632 11.5524 10.8618 11.5524 9.99982C11.5524 9.13772 10.8509 8.43643 9.989 8.43643Z" fill="#0B204C"/>
</svg>
