<svg width="24" height="14" viewBox="0 0 24 14" fill="none" xmlns="http://www.w3.org/2000/svg">
<path fill-rule="evenodd" clip-rule="evenodd" d="M16.545 2.10974C16.1567 1.72135 16.1567 1.09164 16.545 0.703247C16.9334 0.314855 17.5631 0.314854 17.9515 0.703247L23.2807 6.03238C23.6691 6.42077 23.6691 7.05048 23.2807 7.43887C22.8923 7.82726 22.2626 7.82726 21.8742 7.43887L16.545 2.10974Z" fill="#506081"/>
<path fill-rule="evenodd" clip-rule="evenodd" d="M21.8562 6.04214C22.2506 5.64777 22.89 5.64777 23.2844 6.04214C23.6788 6.43652 23.6788 7.07593 23.2844 7.47031L18.0857 12.669C17.6913 13.0634 17.0519 13.0634 16.6575 12.669C16.2631 12.2747 16.2631 11.6353 16.6575 11.2409L21.8562 6.04214Z" fill="#506081"/>
<path fill-rule="evenodd" clip-rule="evenodd" d="M22 5.7478C22.5523 5.7478 23 6.19552 23 6.7478C23 7.30009 22.5523 7.7478 22 7.7478L9 7.7478C8.44772 7.7478 8 7.30009 8 6.7478C8 6.19552 8.44772 5.7478 9 5.7478L22 5.7478Z" fill="#506081"/>
<circle cx="1" cy="6.7478" r="1" fill="#506081"/>
<circle cx="5" cy="6.7478" r="1" fill="#506081"/>
</svg>
