<svg width="103" height="101" viewBox="0 0 103 101" fill="none" xmlns="http://www.w3.org/2000/svg">
<path d="M51.5001 100.75C57.1376 100.75 61.7501 96.1375 61.7501 90.5H41.2501C41.2501 96.1375 45.8626 100.75 51.5001 100.75ZM82.2501 70V44.375C82.2501 28.6413 73.8963 15.47 59.1876 11.985V8.5C59.1876 4.24625 55.7538 0.8125 51.5001 0.8125C47.2463 0.8125 43.8126 4.24625 43.8126 8.5V11.985C29.1551 15.47 20.7501 28.59 20.7501 44.375V70L10.5001 80.25V85.375H92.5001V80.25L82.2501 70ZM72.0001 75.125H31.0001V44.375C31.0001 31.665 38.7388 21.3125 51.5001 21.3125C64.2613 21.3125 72.0001 31.665 72.0001 44.375V75.125ZM28.8476 8.91L21.5188 1.58125C9.21881 10.96 1.12131 25.4125 0.403809 41.8125H10.6538C11.0168 35.313 12.8413 28.9792 15.9913 23.2825C19.1414 17.5858 23.5358 12.673 28.8476 8.91ZM92.3463 41.8125H102.596C101.828 25.4125 93.7301 10.96 81.4813 1.58125L74.2038 8.91C79.4928 12.6916 83.8677 17.6097 87.0071 23.3034C90.1466 28.997 91.971 35.3215 92.3463 41.8125Z" fill="black"/>
</svg>
