<svg width="18" height="19" viewBox="0 0 18 19" fill="none" xmlns="http://www.w3.org/2000/svg">
<path d="M13.8319 11.4857C12.8152 11.4857 11.9006 11.9299 11.2714 12.6336L7.56264 10.5279C7.66475 10.2033 7.72027 9.85814 7.72027 9.50022C7.72027 9.14236 7.66475 8.79722 7.56263 8.47257L11.2711 6.3664C11.9002 7.07032 12.8149 7.5147 13.8318 7.5147C15.7259 7.5147 17.2665 5.9734 17.2665 4.07864C17.2667 2.18437 15.726 0.643579 13.8319 0.643579C11.9377 0.643579 10.3968 2.18435 10.3968 4.07856C10.3968 4.43648 10.4523 4.78169 10.5544 5.10644L6.84575 7.21271C6.21663 6.50917 5.30212 6.06508 4.2856 6.06508C2.39111 6.06508 0.85 7.60584 0.85 9.50014C0.85 11.3944 2.39112 12.9351 4.2856 12.9351C5.30213 12.9351 6.21657 12.491 6.84568 11.7876L10.5544 13.8933C10.4522 14.2181 10.3967 14.5634 10.3967 14.9213C10.3967 16.8156 11.9376 18.3563 13.8319 18.3563C15.7259 18.3563 17.2666 16.8155 17.2666 14.9213C17.2667 13.0269 15.726 11.4857 13.8319 11.4857ZM13.8319 2.09311C14.9264 2.09311 15.8172 2.98389 15.8172 4.07856C15.8172 5.17392 14.9264 6.06508 13.8319 6.06508C12.7373 6.06508 11.8463 5.1739 11.8463 4.07856C11.8463 2.98391 12.7372 2.09311 13.8319 2.09311ZM4.28567 11.4857C3.19067 11.4857 2.29961 10.5948 2.29961 9.50022C2.29961 8.40552 3.19067 7.5147 4.28567 7.5147C5.38016 7.5147 6.27082 8.40546 6.27082 9.50022C6.27082 10.5948 5.38008 11.4857 4.28567 11.4857ZM13.8319 16.9069C12.7372 16.9069 11.8463 16.016 11.8463 14.9214C11.8463 13.8263 12.7372 12.9352 13.8319 12.9352C14.9264 12.9352 15.8172 13.8263 15.8172 14.9214C15.8172 16.016 14.9264 16.9069 13.8319 16.9069Z" fill="#0B204C" stroke="#0B204C" stroke-width="0.3"/>
</svg>
