<svg width="10" height="10" viewBox="0 0 10 10" fill="none" xmlns="http://www.w3.org/2000/svg">
<path d="M5.46368 0.782535L6.54644 2.93327C6.62173 3.08286 6.76731 3.18651 6.93572 3.21046L9.35696 3.55537C9.78109 3.61583 9.95031 4.12662 9.64352 4.41971L7.89152 6.09381C7.76977 6.21022 7.7141 6.37807 7.74294 6.54237L8.15646 8.9063C8.22895 9.32031 7.78559 9.63597 7.40631 9.44065L5.2408 8.32464C5.09021 8.2471 4.91018 8.2471 4.75959 8.32464L2.59408 9.44065C2.2148 9.63617 1.77144 9.32031 1.84394 8.9063L2.25745 6.54237C2.28629 6.37807 2.23062 6.21022 2.10887 6.09381L0.35687 4.41971C0.0500851 4.12643 0.219297 3.61564 0.64343 3.55537L3.06467 3.21046C3.23308 3.18651 3.37866 3.08286 3.45396 2.93327L4.53671 0.782535C4.72615 0.405822 5.27404 0.405822 5.46368 0.782535Z" fill="white"/>
</svg>
