<svg width="19" height="19" viewBox="0 0 19 19" fill="none" xmlns="http://www.w3.org/2000/svg">
<g opacity="0.5">
<path d="M16.6891 5.4839L15.5443 6.62866L12.6824 3.76324L13.8272 2.61848C14.0604 2.38529 14.4667 2.38529 14.6999 2.61848L16.6891 4.6112C16.9293 4.85146 16.9293 5.24364 16.6891 5.4839ZM7.12473 15.0589L4.26285 12.1934L11.6614 4.78433L14.5232 7.64975L7.12473 15.0589ZM3.60214 13.5749L5.74326 15.7196L2.76124 16.5605L3.60214 13.5749ZM17.7102 3.59011L15.721 1.59739C15.3323 1.20874 13.9297 0.473836 12.8096 1.59739L2.72944 11.6847C2.64111 11.773 2.57752 11.879 2.54572 11.9991L1.02645 17.4084C0.955782 17.6593 1.02998 17.9278 1.21017 18.1151C1.3939 18.3023 1.76135 18.3341 1.91681 18.2988L7.32259 16.776C7.44272 16.7442 7.54872 16.6806 7.63705 16.5923L17.7102 6.50499C18.5122 5.70296 18.5122 4.39568 17.7102 3.59011Z" fill="#0B204C" stroke="#0B204C" stroke-width="0.5"/>
</g>
</svg>
