<svg width="17" height="16" viewBox="0 0 17 16" fill="none" xmlns="http://www.w3.org/2000/svg">
<path d="M5.93805 4.01965C4.04891 5.97423 4.46115 9.21793 6.62513 10.6548C6.69643 10.7022 6.79129 10.6928 6.85254 10.633C7.30811 10.1878 7.69351 9.75667 8.03097 9.20831C8.0826 9.12441 8.05049 9.01555 7.96387 8.96862C7.63379 8.7898 7.30535 8.4545 7.12046 8.1003L7.12024 8.10043C6.89875 7.65939 6.82334 7.16501 6.9406 6.65443C6.94073 6.65446 6.94085 6.65449 6.94098 6.65449C7.07591 6.0008 7.77768 5.39272 8.31367 4.83036C8.31254 4.82998 8.31145 4.82958 8.31032 4.8292L10.3185 2.77954C11.1188 1.96273 12.4352 1.95599 13.2438 2.7646C14.0606 3.56487 14.0741 4.88791 13.2739 5.70469L12.0575 6.95555C12.0012 7.01344 11.9829 7.0979 12.0092 7.17425C12.2893 7.98643 12.3582 9.13162 12.1705 9.99683C12.1653 10.021 12.1951 10.0369 12.2125 10.0192L14.8013 7.37688C16.4552 5.68893 16.4411 2.94072 14.7702 1.26975C13.0649 -0.435518 10.2888 -0.421327 8.60101 1.30124L5.94842 4.00856C5.94491 4.01226 5.94159 4.01602 5.93805 4.01965Z" fill="#0B204C"/>
<path d="M10.778 11.0271C10.7779 11.0272 10.7779 11.0273 10.7779 11.0274C10.7795 11.0267 10.781 11.026 10.7827 11.0253C11.3111 10.0592 11.4151 8.95114 11.1674 7.87099L11.1663 7.87214L11.1651 7.87161C10.93 6.90956 10.2848 5.95425 9.40867 5.36607C9.33329 5.31547 9.2129 5.32133 9.14232 5.37841C8.69849 5.73727 8.26407 6.19745 7.97742 6.78469C7.9324 6.87689 7.96611 6.98763 8.05483 7.03913C8.3875 7.23227 8.68794 7.51504 8.88909 7.89044L8.88941 7.89022C9.04617 8.15541 9.20065 8.6586 9.10059 9.19926C9.10052 9.19926 9.10043 9.19926 9.10037 9.19926C9.00701 9.91607 8.28315 10.5736 7.70772 11.1661L7.708 11.1663C7.26997 11.6143 6.15649 12.7494 5.71063 13.2049C4.91036 14.0217 3.58732 14.0352 2.77053 13.2349C1.95375 12.4346 1.94025 11.1116 2.74052 10.2948L3.96052 9.04021C4.01582 8.98334 4.03461 8.9007 4.01002 8.8253C3.73913 7.99414 3.66491 6.87476 3.8359 6.01051C3.84066 5.98642 3.81103 5.97104 3.79383 5.98858L1.24389 8.59115C-0.426886 10.2964 -0.412726 13.0728 1.27541 14.7609C2.98059 16.4317 5.74267 16.4034 7.41339 14.6982C7.9938 14.049 10.4784 11.7486 10.778 11.0271Z" fill="#0B204C"/>
</svg>
