<svg width="23" height="17" viewBox="0 0 23 17" fill="none" xmlns="http://www.w3.org/2000/svg">
<path d="M15.6071 16.4286H1.64286C1.20714 16.4286 0.789277 16.2555 0.481182 15.9474C0.173086 15.6393 0 15.2214 0 14.7857V1.64286C0 1.20714 0.173086 0.789277 0.481182 0.481182C0.789277 0.173086 1.20714 0 1.64286 0H15.6071C16.0429 0 16.4607 0.173086 16.7688 0.481182C17.0769 0.789277 17.25 1.20714 17.25 1.64286V4.97786L21.7021 1.79893C21.8247 1.71164 21.969 1.6597 22.1191 1.6488C22.2692 1.6379 22.4194 1.66844 22.5533 1.7371C22.6872 1.80576 22.7997 1.90989 22.8785 2.03813C22.9573 2.16637 22.9993 2.31379 23 2.46429V13.9643C22.9993 14.1148 22.9573 14.2622 22.8785 14.3904C22.7997 14.5187 22.6872 14.6228 22.5533 14.6915C22.4194 14.7601 22.2692 14.7907 22.1191 14.7798C21.969 14.7689 21.8247 14.7169 21.7021 14.6296L17.25 11.4507V14.7857C17.25 15.2214 17.0769 15.6393 16.7688 15.9474C16.4607 16.2555 16.0429 16.4286 15.6071 16.4286Z" fill="#6E6B7B"/>
</svg>
