<svg width="18" height="17" viewBox="0 0 18 17" fill="none" xmlns="http://www.w3.org/2000/svg">
<path d="M16.4615 6.07654C16.2373 5.87943 15.9615 5.75237 15.6636 5.70908L12.0165 5.17914L10.3855 1.87437C10.2523 1.60446 10.0462 1.38128 9.78948 1.22905C9.55132 1.08785 9.27841 1.01318 9.00018 1.01318C8.72195 1.01318 8.449 1.08782 8.21087 1.22905C7.95416 1.38128 7.74807 1.60443 7.61484 1.87437L5.98385 5.17916L2.33682 5.70908C2.03893 5.75237 1.76301 5.87943 1.5389 6.07654C1.33101 6.25938 1.1757 6.49589 1.08971 6.76052C1.00375 7.02512 0.990386 7.30776 1.05108 7.57789C1.11652 7.86906 1.26506 8.13406 1.48063 8.34416L4.11964 10.9166L3.49664 14.5489C3.41945 14.999 3.54336 15.4566 3.8366 15.8044C4.13202 16.1549 4.56307 16.3558 5.0192 16.3558C5.26761 16.3558 5.51624 16.2942 5.7382 16.1775L9.0002 14.4625L12.2622 16.1775C12.4842 16.2942 12.7328 16.3558 12.9812 16.3558C13.4373 16.3558 13.8684 16.1549 14.1638 15.8044C14.457 15.4566 14.581 14.999 14.5038 14.5489L13.8808 10.9166L16.5198 8.34416C16.7353 8.13403 16.8839 7.86906 16.9493 7.57789C17.01 7.30776 16.9967 7.02512 16.9107 6.76052C16.8247 6.49592 16.6694 6.25941 16.4615 6.07654ZM15.7252 7.52902L12.8107 10.37C12.7149 10.4634 12.6711 10.598 12.6938 10.7298L13.3818 14.7413C13.4269 15.0041 13.2181 15.2175 12.9812 15.2175C12.9187 15.2175 12.8542 15.2026 12.7919 15.1699L9.18942 13.276C9.13019 13.2448 9.0652 13.2292 9.00023 13.2292C8.93526 13.2292 8.87027 13.2448 8.81104 13.276L5.20852 15.1699C5.14626 15.2026 5.08175 15.2175 5.01925 15.2175C4.78234 15.2175 4.57356 15.0041 4.61863 14.7413L5.30665 10.7298C5.32929 10.598 5.28555 10.4634 5.18973 10.37L2.27517 7.52902C2.03388 7.29384 2.16703 6.88405 2.50048 6.83559L6.52825 6.25032C6.66066 6.23108 6.77513 6.14791 6.83435 6.02791L8.63564 2.37814C8.7102 2.22706 8.8552 2.15151 9.0002 2.15151C9.14523 2.15151 9.29021 2.22708 9.36474 2.37814L11.166 6.02791C11.2253 6.14788 11.3397 6.23108 11.4721 6.25032L15.4999 6.83559C15.8334 6.88405 15.9665 7.29384 15.7252 7.52902Z" fill="white" stroke="white" stroke-width="0.5"/>
<path d="M12.9808 16.3691C12.7302 16.3691 12.4795 16.3069 12.2556 16.1892L8.99983 14.4775L5.74401 16.1892C5.52015 16.307 5.26939 16.3692 5.01882 16.3692C4.55876 16.3692 4.12402 16.1665 3.82605 15.813C3.53028 15.4622 3.40532 15.0006 3.48317 14.5467L4.10497 10.9213L1.47096 8.35372C1.25355 8.14182 1.10377 7.87456 1.03774 7.58086C0.976514 7.3084 0.989986 7.02334 1.07669 6.75648C1.16342 6.48962 1.32009 6.25106 1.52976 6.06665C1.75581 5.86784 2.03412 5.73969 2.33456 5.69603L5.97468 5.16709L7.60259 1.86857C7.73696 1.59632 7.94483 1.37126 8.20377 1.2177C8.44398 1.07528 8.71923 1 8.99986 1C9.28045 1 9.55574 1.07528 9.79594 1.2177C10.0549 1.37123 10.2628 1.59632 10.3971 1.86857L12.025 5.16709L15.6652 5.69603C15.9656 5.73966 16.2439 5.86782 16.4699 6.06665C16.6796 6.25106 16.8363 6.48962 16.923 6.7565C17.0097 7.02339 17.0232 7.30845 16.962 7.58089C16.8959 7.87458 16.7461 8.14182 16.5287 8.35375L13.8947 10.9213L14.5165 14.5467C14.5943 15.0006 14.4694 15.4622 14.1736 15.813C13.8756 16.1664 13.4408 16.3691 12.9808 16.3691ZM8.9998 14.4476L9.006 14.4508L12.268 16.1657C12.488 16.2814 12.7345 16.3426 12.9808 16.3426C13.433 16.3426 13.8603 16.1433 14.1532 15.7959C14.4439 15.4511 14.5668 14.9974 14.4902 14.5512L13.8661 10.912L16.5101 8.33467C16.7238 8.12635 16.8711 7.86366 16.9359 7.57502C16.9962 7.30723 16.9829 7.027 16.8977 6.76466C16.8124 6.50232 16.6585 6.26782 16.4523 6.08655C16.2301 5.89115 15.9566 5.76517 15.6613 5.72228L12.0073 5.19136L12.0042 5.18508L10.3733 1.88026C10.2412 1.61264 10.0368 1.39143 9.78236 1.2405C9.54625 1.10049 9.27567 1.02649 8.99983 1.02649C8.72399 1.02649 8.45339 1.10049 8.2173 1.2405C7.96282 1.3914 7.75849 1.61264 7.6264 1.88026L5.9923 5.1913L5.98539 5.19231L2.33836 5.72226C2.04304 5.76517 1.76949 5.89112 1.5473 6.08653C1.34121 6.2678 1.1872 6.50227 1.10196 6.76463C1.01672 7.02698 1.00348 7.30717 1.06367 7.57499C1.12856 7.86366 1.27582 8.12635 1.48953 8.33467L4.13354 10.912L4.13237 10.9189L3.50937 14.5512C3.43284 14.9974 3.55569 15.4511 3.84641 15.7959C4.1393 16.1433 4.56663 16.3426 5.01885 16.3426C5.26511 16.3426 5.51159 16.2814 5.73166 16.1657L8.9998 14.4476ZM12.9808 15.2308C12.9131 15.2308 12.8474 15.2143 12.7854 15.1816L9.18286 13.2877C9.07048 13.2286 8.92931 13.2286 8.81683 13.2877L5.21431 15.1816C5.15232 15.2143 5.08655 15.2308 5.01888 15.2308C4.89513 15.2308 4.77761 15.1756 4.6964 15.0793C4.61624 14.9842 4.58385 14.8634 4.60516 14.7391L5.29317 10.7276C5.31507 10.6 5.27277 10.4699 5.18006 10.3795L2.26553 7.53856C2.15026 7.42621 2.10955 7.26131 2.1593 7.10821C2.20904 6.9551 2.33889 6.84562 2.49822 6.82248L6.52599 6.23721C6.65409 6.21859 6.76479 6.13815 6.82208 6.02209L8.62336 2.37232C8.6946 2.22795 8.83883 2.13828 8.99983 2.13828C9.1608 2.13828 9.30506 2.22795 9.37627 2.37232L11.1776 6.02209C11.2348 6.13818 11.3455 6.21861 11.4737 6.23721L15.5014 6.82248C15.6607 6.84562 15.7906 6.95513 15.8404 7.10823C15.8901 7.26131 15.8494 7.42621 15.7341 7.53856L12.8196 10.3795C12.7269 10.4699 12.6846 10.6 12.7065 10.7276L13.3945 14.7391C13.4158 14.8634 13.3834 14.9842 13.3032 15.0793C13.2221 15.1756 13.1045 15.2308 12.9808 15.2308ZM8.9998 13.216C9.06762 13.216 9.13519 13.2326 9.19519 13.2642L12.7977 15.1581C12.8559 15.1887 12.9175 15.2042 12.9808 15.2042C13.0967 15.2042 13.2068 15.1524 13.2829 15.0621C13.358 14.9731 13.3883 14.86 13.3683 14.7436L12.6803 10.7321C12.6569 10.5958 12.702 10.4569 12.8011 10.3605L15.7156 7.51951C15.8235 7.41426 15.8616 7.2598 15.8151 7.11642C15.7685 6.97301 15.6468 6.87044 15.4976 6.84873L11.4698 6.26347C11.3331 6.24359 11.2149 6.15774 11.1537 6.03381L9.35244 2.38404C9.28569 2.24881 9.15057 2.16482 8.9998 2.16482C8.84901 2.16482 8.71389 2.24881 8.64717 2.38404L6.84588 6.03381C6.78472 6.15774 6.66655 6.24362 6.52979 6.26347L2.50202 6.84876C2.35279 6.87044 2.23114 6.97301 2.18456 7.11642C2.13798 7.25982 2.17612 7.41428 2.28408 7.51953L5.19858 10.3605C5.29756 10.457 5.3427 10.5959 5.31932 10.7321L4.6313 14.7436C4.61135 14.86 4.64167 14.9732 4.71668 15.0622C4.7928 15.1524 4.90294 15.2042 5.01882 15.2042C5.08217 15.2042 5.14376 15.1887 5.2019 15.1582L8.80442 13.2642C8.86448 13.2326 8.93202 13.216 8.9998 13.216Z" fill="white"/>
</svg>
