<svg width="19" height="19" viewBox="0 0 19 19" fill="none" xmlns="http://www.w3.org/2000/svg">
<path d="M14.1182 6.1884V7.86563H5.23723V6.1884C5.23723 5.40978 4.29587 5.01985 3.74528 5.57041L0.611456 8.70423C0.27014 9.04555 0.27014 9.59887 0.611456 9.94019L3.74528 13.074C4.29584 13.6246 5.23723 13.2346 5.23723 12.456V10.7788H14.1182V12.4561C14.1182 13.2347 15.0595 13.6246 15.6101 13.074L18.7439 9.94023C19.0853 9.59891 19.0853 9.04558 18.7439 8.70427L15.6101 5.57044C15.0596 5.01985 14.1182 5.40978 14.1182 6.1884Z" fill="#919BB3"/>
<path d="M12.8113 13.7627H11.1341V4.88177H12.8113C13.59 4.88177 13.9799 3.9404 13.4293 3.38981L10.2955 0.255987C9.95419 -0.0853291 9.40087 -0.0853291 9.05955 0.255987L5.92573 3.38981C5.37517 3.94037 5.7651 4.88177 6.54373 4.88177H8.22092V13.7627H6.54369C5.76507 13.7627 5.37514 14.7041 5.92569 15.2546L9.05952 18.3885C9.40083 18.7298 9.95416 18.7298 10.2955 18.3885L13.4293 15.2546C13.9799 14.7041 13.59 13.7627 12.8113 13.7627Z" fill="#919BB3"/>
</svg>
