<svg width="18" height="18" viewBox="0 0 18 18" fill="none" xmlns="http://www.w3.org/2000/svg">
<path d="M4.11975 9.82301L4.11978 9.82299C4.51101 9.64925 4.96892 9.82541 5.1427 10.2166C5.31647 10.6077 5.14025 11.0656 4.74918 11.2395L4.74915 11.2395C4.13819 11.511 3.61523 11.8374 3.19326 12.2083L3.19325 12.2083C2.6894 12.651 2.4 13.2925 2.4 13.9688V15.125C2.4 15.3868 2.61324 15.6 2.875 15.6H15.125C15.3868 15.6 15.6 15.3868 15.6 15.125V13.9688C15.6 13.2925 15.3106 12.651 14.8067 12.2083L14.905 12.0965L14.8067 12.2083C14.1986 11.6739 12.393 10.4 9 10.4C6.36699 10.4 4.225 8.25801 4.225 5.625C4.225 2.99199 6.36699 0.85 9 0.85C11.633 0.85 13.775 2.99199 13.775 5.625C13.775 7.05395 13.1439 8.3379 12.1466 9.21334C14.0121 9.6767 15.1935 10.4847 15.8299 11.0439C16.6689 11.7812 17.15 12.8472 17.15 13.9688V15.125C17.15 16.2418 16.2418 17.15 15.125 17.15H2.875C1.75822 17.15 0.85 16.2418 0.85 15.125V13.9688C0.85 12.8472 1.33106 11.7812 2.17015 11.0439C2.71332 10.5667 3.36969 10.1563 4.11975 9.82301ZM12.225 5.625C12.225 3.84688 10.7781 2.4 9 2.4C7.22188 2.4 5.775 3.84688 5.775 5.625C5.775 7.40312 7.22188 8.85 9 8.85C10.7781 8.85 12.225 7.40312 12.225 5.625Z" fill="white" stroke="white" stroke-width="0.3"/>
</svg>
