<svg width="9" height="17" viewBox="0 0 9 17" fill="none" xmlns="http://www.w3.org/2000/svg">
<path d="M0.296837 0.797093C0.0988904 0.994875 -6.67506e-07 1.22932 -6.55665e-07 1.50022L-4.37147e-08 15.5C-3.18686e-08 15.771 0.0988911 16.0053 0.296837 16.2033C0.495003 16.4012 0.729288 16.5001 1.00013 16.5001C1.27092 16.5001 1.5052 16.4012 1.7032 16.2033L8.70313 9.20333C8.90107 9.00516 9.00018 8.77088 9.00018 8.50009C9.00018 8.2293 8.90107 7.9948 8.70313 7.79702L1.70315 0.797093C1.5052 0.599365 1.27092 0.500091 1.00007 0.500092C0.729287 0.500092 0.495002 0.599365 0.296837 0.797093Z" fill="#0B204C"/>
</svg>
